<?xml version="1.0" encoding="utf-8"?>
<!-- Generator: Adobe Illustrator 17.0.0, SVG Export Plug-In . SVG Version: 6.00 Build 0)  -->
<!DOCTYPE svg PUBLIC "-//W3C//DTD SVG 1.1//EN" "http://www.w3.org/Graphics/SVG/1.1/DTD/svg11.dtd">
<svg version="1.1" id="Layer_1" xmlns="http://www.w3.org/2000/svg" xmlns:xlink="http://www.w3.org/1999/xlink" x="0px" y="0px"
	 width="437.581px" height="175.149px" viewBox="0 0 437.581 175.149" enable-background="new 0 0 437.581 175.149"
	 xml:space="preserve">
<g>
	<path fill="#1A1A1A" stroke="#FFFFFF" stroke-width="10" stroke-linejoin="round" stroke-miterlimit="10" d="M60.208,104.178
		c-1.35-1.718-2.953-3.198-4.81-4.441c-1.856-1.242-3.866-2.278-6.029-3.106c-2.163-0.828-4.426-1.435-6.788-1.818
		c-2.362-0.384-4.725-0.575-7.087-0.575c-4.172,0-8.223,0.291-12.149,0.874s-7.854,1.457-11.781,2.623
		c-0.184,3.804-0.261,7.578-0.23,11.321c0.031,3.743,0.016,7.486-0.046,11.229c-0.061,7.087-0.108,14.113-0.138,21.077
		c-0.031,6.965-0.046,13.96-0.046,20.986H32.55v-21.445c2.454-0.031,4.955-0.222,7.501-0.575c2.547-0.353,5.009-0.905,7.386-1.657
		c2.378-0.752,4.61-1.726,6.696-2.922c2.086-1.197,3.904-2.653,5.454-4.372s2.769-3.728,3.659-6.029
		c0.89-2.301,1.334-4.94,1.334-7.916c0-2.73-0.391-5.192-1.173-7.386C62.624,107.851,61.558,105.896,60.208,104.178z
		 M43.434,122.149c-0.476,0.935-1.112,1.749-1.91,2.439c-0.797,0.691-1.71,1.22-2.738,1.588s-2.094,0.553-3.198,0.553
		c-0.429,0-0.844,0-1.242,0c-0.399,0-0.813-0.031-1.242-0.092l0.553-13.438c0.614-0.153,1.266-0.284,1.956-0.391
		c0.691-0.108,1.358-0.161,2.002-0.161c1.933,0,3.505,0.56,4.717,1.679c1.212,1.119,1.818,2.677,1.818,4.671
		C44.147,120.162,43.909,121.213,43.434,122.149z"/>
	<polygon fill="#1A1A1A" stroke="#FFFFFF" stroke-width="10" stroke-linejoin="round" stroke-miterlimit="10" points="
		68.492,160.598 87.912,159.586 91.134,96.906 66.651,98.195 	"/>
	<path fill="#1A1A1A" stroke="#FFFFFF" stroke-width="10" stroke-linejoin="round" stroke-miterlimit="10" d="M147.003,125.163
		c0-4.541-0.744-8.552-2.232-12.035c-1.488-3.482-3.566-6.412-6.235-8.79c-2.669-2.378-5.845-4.18-9.526-5.407
		c-3.682-1.228-7.716-1.841-12.104-1.841c-3.528,0-7.079,0.222-10.654,0.667s-7.048,1.204-10.423,2.278l-1.289,59.918
		c1.442,0.153,2.853,0.268,4.234,0.345c1.38,0.077,2.792,0.115,4.234,0.115c3.866,0,7.632-0.276,11.298-0.828
		c3.666-0.553,7.125-1.419,10.378-2.6c3.252-1.181,6.243-2.692,8.974-4.533c2.73-1.841,5.085-4.072,7.064-6.696
		c1.979-2.623,3.521-5.637,4.625-9.043C146.45,133.308,147.003,129.458,147.003,125.163z M127.237,133.791
		c-0.598,1.58-1.45,2.991-2.554,4.234c-1.104,1.242-2.416,2.285-3.935,3.129c-1.519,0.844-3.198,1.403-5.039,1.679l1.841-26.692
		c1.964,0.061,3.62,0.422,4.97,1.082c1.35,0.659,2.439,1.549,3.267,2.669c0.828,1.12,1.427,2.439,1.795,3.958
		c0.368,1.519,0.553,3.153,0.553,4.901C128.134,130.532,127.835,132.212,127.237,133.791z"/>
	<path fill="#1A1A1A" stroke="#FFFFFF" stroke-width="10" stroke-linejoin="round" stroke-miterlimit="10" d="M161.959,97.091
		l-18.316,61.299l23.47,2.301l2.301-10.4h10.492l2.761,10.4l22.826-2.945l-17.948-61.943L161.959,97.091z M171.347,136.208
		l3.405-16.015l3.497,16.015H171.347z"/>
	<path fill="#ED1C24" stroke="#FFFFFF" stroke-width="10" stroke-linejoin="round" stroke-miterlimit="10" d="M245.439,133.539
		l0.921-14.267h-16.936v-5.798l19.512-1.012c0.246-2.884,0.445-5.737,0.598-8.56s0.322-5.676,0.506-8.56H207.61l-1.472,66.361
		l23.287-0.46l-0.092-27.244L245.439,133.539z"/>
	<path fill="#ED1C24" stroke="#FFFFFF" stroke-width="10" stroke-linejoin="round" stroke-miterlimit="10" d="M260.857,97.091
		l-18.316,61.299l23.47,2.301l2.301-10.4h10.492l2.761,10.4l22.826-2.945l-17.948-61.943L260.857,97.091z M270.245,136.208
		l3.405-16.015l3.497,16.015H270.245z"/>
	<path fill="#ED1C24" stroke="#FFFFFF" stroke-width="10" stroke-linejoin="round" stroke-miterlimit="10" d="M342.542,140.35
		c-1.197,0.399-2.393,0.714-3.59,0.943c-1.197,0.23-2.362,0.345-3.497,0.345c-1.626,0-3.106-0.215-4.441-0.644
		c-1.335-0.429-2.47-1.066-3.405-1.91c-0.935-0.844-1.657-1.903-2.163-3.175c-0.506-1.273-0.759-2.769-0.759-4.487
		c0-2.362,0.453-4.41,1.358-6.144c0.905-1.734,2.117-3.168,3.635-4.303c1.518-1.134,3.267-1.979,5.247-2.531
		c1.979-0.553,4.058-0.828,6.235-0.828c0.89,0,1.764,0.046,2.623,0.138c0.859,0.092,1.734,0.261,2.623,0.506l1.657-19.42
		c-1.994-0.921-4.08-1.549-6.259-1.887s-4.326-0.506-6.443-0.506c-5.308,0-10.01,0.913-14.105,2.738
		c-4.096,1.826-7.532,4.341-10.309,7.548c-2.777,3.206-4.879,6.987-6.304,11.344c-1.427,4.357-2.14,9.051-2.14,14.082
		c0,4.204,0.706,8.161,2.117,11.873c1.411,3.712,3.397,6.973,5.96,9.779c2.562,2.807,5.629,5.024,9.204,6.65
		c3.574,1.626,7.54,2.439,11.896,2.439c1.319,0,2.708-0.092,4.165-0.276c1.457-0.184,2.915-0.453,4.372-0.805
		c1.457-0.353,2.876-0.767,4.257-1.242c1.38-0.476,2.669-1.02,3.866-1.634l0.736-21.63c-0.951,0.583-1.979,1.135-3.084,1.657
		C344.89,139.49,343.739,139.951,342.542,140.35z"/>
	<path fill="#ED1C24" stroke="#FFFFFF" stroke-width="10" stroke-linejoin="round" stroke-miterlimit="10" d="M401.909,137.312
		l3.405-42.246h-7.971c0.081-25.264,0.151-50.527,0.271-75.791c0.009-2.298-0.147-4.476-1.572-6.382h-2.14
		c-4.282,5.354-5.981,11.733-7.166,18.286c-3.083,17.056-3.029,34.289-2.901,51.534c0.016,2.369,0.581,4.14,2.574,5.395
		c2.631,1.659,3.91,3.91,3.407,6.958h-8.433l-1.472,65.717l38.749-3.037l1.933-20.433L401.909,137.312L401.909,137.312z"/>
	<path fill="#ED1C24" stroke="#FFFFFF" stroke-width="10" stroke-linejoin="round" stroke-miterlimit="10" d="M369.979,89.395
		c6.636-3.713,8.404-9.773,8.443-16.886c0.109-18.666-0.341-37.319-1.085-55.968c-0.03-0.752,0.35-1.716-0.931-2.198
		c-0.934,1.047-0.633,2.413-0.721,3.622c-1.001,13.871-1.948,27.743-2.945,41.617c-0.077,1.102,0.28,2.917-1.293,2.861
		c-1.508-0.053-1.11-1.829-1.148-2.957c-0.399-12.475-0.775-24.95-1.155-37.423c-0.021-0.714-0.03-1.426-0.06-2.14
		c-0.03-0.7,0.037-1.545-1.022-1.449c-0.793,0.075-0.723,0.8-0.766,1.372c-0.166,2.371-0.329,4.744-0.481,7.115
		c-0.723,11.39-1.437,22.778-2.168,34.166c-0.072,1.127,0.103,2.742-1.466,2.678c-1.237-0.049-1.099-1.582-1.204-2.611
		c-0.049-0.473-0.044-0.95-0.065-1.426c-0.6-14.013-1.183-28.026-1.827-42.039c-0.056-1.185,0.443-2.597-0.815-3.612
		c-1.291,1.076-0.784,2.492-0.847,3.708c-0.707,13.651-1.351,27.307-2.019,40.961c-0.047,0.947-0.06,1.911-0.266,2.831
		c-0.079,0.355-0.634,0.819-0.99,0.835c-0.343,0.016-0.928-0.425-1.022-0.77c-0.21-0.786-0.208-1.635-0.25-2.462
		c-0.693-13.889-1.365-27.781-2.097-41.668c-0.056-1.05,0.544-2.38-0.98-3.274c-1.08,2.056-0.609,4.21-0.693,6.24
		c-0.726,17.457-1.93,34.898-1.81,52.382c0.04,5.829,1.666,11.367,6.746,14.597c3.258,2.07,4.298,4.275,3.766,7.766
		c-0.13,0.843-0.082,1.714-0.063,2.58l-6.723,0.353l1.841,62.403l19.421-1.012l3.222-62.679l-7.945,0.418
		c0.025-1.762,0.064-3.523,0.035-5.284C368.577,90.869,368.908,89.994,369.979,89.395z"/>
</g>
<g>
	<path fill="#1A1A1A" d="M60.208,104.178c-1.35-1.718-2.953-3.198-4.81-4.441c-1.856-1.242-3.866-2.278-6.029-3.106
		c-2.163-0.828-4.426-1.435-6.788-1.818c-2.362-0.384-4.725-0.575-7.087-0.575c-4.172,0-8.223,0.291-12.149,0.874
		s-7.854,1.457-11.781,2.623c-0.184,3.804-0.261,7.578-0.23,11.321c0.031,3.743,0.016,7.486-0.046,11.229
		c-0.061,7.087-0.108,14.113-0.138,21.077c-0.031,6.965-0.046,13.96-0.046,20.986H32.55v-21.445
		c2.454-0.031,4.955-0.222,7.501-0.575c2.547-0.353,5.009-0.905,7.386-1.657c2.378-0.752,4.61-1.726,6.696-2.922
		c2.086-1.197,3.904-2.653,5.454-4.372s2.769-3.728,3.659-6.029c0.89-2.301,1.334-4.94,1.334-7.916c0-2.73-0.391-5.192-1.173-7.386
		C62.624,107.851,61.558,105.896,60.208,104.178z M43.434,122.149c-0.476,0.935-1.112,1.749-1.91,2.439
		c-0.797,0.691-1.71,1.22-2.738,1.588s-2.094,0.553-3.198,0.553c-0.429,0-0.844,0-1.242,0c-0.399,0-0.813-0.031-1.242-0.092
		l0.553-13.438c0.614-0.153,1.266-0.284,1.956-0.391c0.691-0.108,1.358-0.161,2.002-0.161c1.933,0,3.505,0.56,4.717,1.679
		c1.212,1.119,1.818,2.677,1.818,4.671C44.147,120.162,43.909,121.213,43.434,122.149z"/>
	<polygon fill="#1A1A1A" points="68.492,160.598 87.912,159.586 91.134,96.906 66.651,98.195 	"/>
	<path fill="#1A1A1A" d="M147.003,125.163c0-4.541-0.744-8.552-2.232-12.035c-1.488-3.482-3.566-6.412-6.235-8.79
		c-2.669-2.378-5.845-4.18-9.526-5.407c-3.682-1.228-7.716-1.841-12.104-1.841c-3.528,0-7.079,0.222-10.654,0.667
		s-7.048,1.204-10.423,2.278l-1.289,59.918c1.442,0.153,2.853,0.268,4.234,0.345c1.38,0.077,2.792,0.115,4.234,0.115
		c3.866,0,7.632-0.276,11.298-0.828c3.666-0.553,7.125-1.419,10.378-2.6c3.252-1.181,6.243-2.692,8.974-4.533
		c2.73-1.841,5.085-4.072,7.064-6.696c1.979-2.623,3.521-5.637,4.625-9.043C146.45,133.308,147.003,129.458,147.003,125.163z
		 M127.237,133.791c-0.598,1.58-1.45,2.991-2.554,4.234c-1.104,1.242-2.416,2.285-3.935,3.129c-1.519,0.844-3.198,1.403-5.039,1.679
		l1.841-26.692c1.964,0.061,3.62,0.422,4.97,1.082c1.35,0.659,2.439,1.549,3.267,2.669c0.828,1.12,1.427,2.439,1.795,3.958
		c0.368,1.519,0.553,3.153,0.553,4.901C128.134,130.532,127.835,132.212,127.237,133.791z"/>
	<path fill="#1A1A1A" d="M161.959,97.091l-18.316,61.299l23.47,2.301l2.301-10.4h10.492l2.761,10.4l22.826-2.945l-17.948-61.943
		L161.959,97.091z M171.347,136.208l3.405-16.015l3.497,16.015H171.347z"/>
	<path fill="#ED1C24" d="M245.439,133.539l0.921-14.267h-16.936v-5.798l19.512-1.012c0.246-2.884,0.445-5.737,0.598-8.56
		s0.322-5.676,0.506-8.56H207.61l-1.472,66.361l23.287-0.46l-0.092-27.244L245.439,133.539z"/>
	<path fill="#ED1C24" d="M260.857,97.091l-18.316,61.299l23.47,2.301l2.301-10.4h10.492l2.761,10.4l22.826-2.945l-17.948-61.943
		L260.857,97.091z M270.245,136.208l3.405-16.015l3.497,16.015H270.245z"/>
	<path fill="#ED1C24" d="M342.542,140.35c-1.197,0.399-2.393,0.714-3.59,0.943c-1.197,0.23-2.362,0.345-3.497,0.345
		c-1.626,0-3.106-0.215-4.441-0.644c-1.335-0.429-2.47-1.066-3.405-1.91c-0.935-0.844-1.657-1.903-2.163-3.175
		c-0.506-1.273-0.759-2.769-0.759-4.487c0-2.362,0.453-4.41,1.358-6.144c0.905-1.734,2.117-3.168,3.635-4.303
		c1.518-1.134,3.267-1.979,5.247-2.531c1.979-0.553,4.058-0.828,6.235-0.828c0.89,0,1.764,0.046,2.623,0.138
		c0.859,0.092,1.734,0.261,2.623,0.506l1.657-19.42c-1.994-0.921-4.08-1.549-6.259-1.887s-4.326-0.506-6.443-0.506
		c-5.308,0-10.01,0.913-14.105,2.738c-4.096,1.826-7.532,4.341-10.309,7.548c-2.777,3.206-4.879,6.987-6.304,11.344
		c-1.427,4.357-2.14,9.051-2.14,14.082c0,4.204,0.706,8.161,2.117,11.873c1.411,3.712,3.397,6.973,5.96,9.779
		c2.562,2.807,5.629,5.024,9.204,6.65c3.574,1.626,7.54,2.439,11.896,2.439c1.319,0,2.708-0.092,4.165-0.276
		c1.457-0.184,2.915-0.453,4.372-0.805c1.457-0.353,2.876-0.767,4.257-1.242c1.38-0.476,2.669-1.02,3.866-1.634l0.736-21.63
		c-0.951,0.583-1.979,1.135-3.084,1.657C344.89,139.49,343.739,139.951,342.542,140.35z"/>
	<path fill="#ED1C24" d="M401.909,137.312l3.405-42.246h-7.971c0.081-25.264,0.151-50.527,0.271-75.791
		c0.009-2.298-0.147-4.476-1.572-6.382h-2.14c-4.282,5.354-5.981,11.733-7.166,18.286c-3.083,17.056-3.029,34.289-2.901,51.534
		c0.016,2.369,0.581,4.14,2.574,5.395c2.631,1.659,3.91,3.91,3.407,6.958h-8.433l-1.472,65.717l38.749-3.037l1.933-20.433
		L401.909,137.312L401.909,137.312z"/>
	<path fill="#ED1C24" d="M369.979,89.395c6.636-3.713,8.404-9.773,8.443-16.886c0.109-18.666-0.341-37.319-1.085-55.968
		c-0.03-0.752,0.35-1.716-0.931-2.198c-0.934,1.047-0.633,2.413-0.721,3.622c-1.001,13.871-1.948,27.743-2.945,41.617
		c-0.077,1.102,0.28,2.917-1.293,2.861c-1.508-0.053-1.11-1.829-1.148-2.957c-0.399-12.475-0.775-24.95-1.155-37.423
		c-0.021-0.714-0.03-1.426-0.06-2.14c-0.03-0.7,0.037-1.545-1.022-1.449c-0.793,0.075-0.723,0.8-0.766,1.372
		c-0.166,2.371-0.329,4.744-0.481,7.115c-0.723,11.39-1.437,22.778-2.168,34.166c-0.072,1.127,0.103,2.742-1.466,2.678
		c-1.237-0.049-1.099-1.582-1.204-2.611c-0.049-0.473-0.044-0.95-0.065-1.426c-0.6-14.013-1.183-28.026-1.827-42.039
		c-0.056-1.185,0.443-2.597-0.815-3.612c-1.291,1.076-0.784,2.492-0.847,3.708c-0.707,13.651-1.351,27.307-2.019,40.961
		c-0.047,0.947-0.06,1.911-0.266,2.831c-0.079,0.355-0.634,0.819-0.99,0.835c-0.343,0.016-0.928-0.425-1.022-0.77
		c-0.21-0.786-0.208-1.635-0.25-2.462c-0.693-13.889-1.365-27.781-2.097-41.668c-0.056-1.05,0.544-2.38-0.98-3.274
		c-1.08,2.056-0.609,4.21-0.693,6.24c-0.726,17.457-1.93,34.898-1.81,52.382c0.04,5.829,1.666,11.367,6.746,14.597
		c3.258,2.07,4.298,4.275,3.766,7.766c-0.13,0.843-0.082,1.714-0.063,2.58l-6.723,0.353l1.841,62.403l19.421-1.012l3.222-62.679
		l-7.945,0.418c0.025-1.762,0.064-3.523,0.035-5.284C368.577,90.869,368.908,89.994,369.979,89.395z"/>
</g>
</svg>
