<?xml version="1.0" encoding="utf-8"?>
<!-- Generator: Adobe Illustrator 17.0.0, SVG Export Plug-In . SVG Version: 6.00 Build 0)  -->
<!DOCTYPE svg PUBLIC "-//W3C//DTD SVG 1.1//EN" "http://www.w3.org/Graphics/SVG/1.1/DTD/svg11.dtd">
<svg version="1.1" id="Layer_1" xmlns="http://www.w3.org/2000/svg" xmlns:xlink="http://www.w3.org/1999/xlink" x="0px" y="0px"
	 width="138.639px" height="55.493px" viewBox="0 0 138.639 55.493" enable-background="new 0 0 138.639 55.493"
	 xml:space="preserve">
<g>
	<path fill="#1A1A1A" stroke="#FFFFFF" stroke-width="10" stroke-linejoin="round" stroke-miterlimit="10" d="M-83.936-155.726
		c-1.566-1.993-3.425-3.71-5.579-5.151c-2.153-1.441-4.484-2.643-6.993-3.603c-2.509-0.961-5.134-1.664-7.874-2.109
		c-2.74-0.445-5.481-0.667-8.221-0.667c-4.84,0-9.538,0.338-14.093,1.014c-4.555,0.676-9.111,1.69-13.666,3.043
		c-0.214,4.413-0.303,8.79-0.267,13.132c0.036,4.342,0.018,8.684-0.053,13.025c-0.071,8.221-0.125,16.371-0.16,24.449
		c-0.036,8.079-0.053,16.193-0.053,24.343h24.876v-24.876c2.847-0.036,5.748-0.258,8.701-0.667c2.954-0.409,5.81-1.05,8.568-1.922
		c2.758-0.872,5.347-2.002,7.767-3.39c2.42-1.388,4.529-3.078,6.326-5.071c1.797-1.993,3.212-4.324,4.244-6.993
		c1.032-2.669,1.548-5.73,1.548-9.182c0-3.167-0.454-6.023-1.361-8.568C-81.134-151.464-82.37-153.733-83.936-155.726z
		 M-103.394-134.88c-0.552,1.085-1.29,2.029-2.215,2.829c-0.925,0.801-1.984,1.415-3.176,1.842c-1.192,0.427-2.429,0.641-3.71,0.641
		c-0.498,0-0.979,0-1.441,0c-0.463,0-0.943-0.036-1.441-0.107l0.641-15.588c0.712-0.178,1.468-0.329,2.269-0.454
		c0.801-0.125,1.575-0.187,2.322-0.187c2.242,0,4.066,0.65,5.472,1.949c1.406,1.299,2.109,3.105,2.109,5.418
		C-102.567-137.184-102.843-135.965-103.394-134.88z"/>
	<polygon fill="#1A1A1A" stroke="#FFFFFF" stroke-width="10" stroke-linejoin="round" stroke-miterlimit="10" points="
		-74.327,-90.278 -51.8,-91.453 -48.063,-164.16 -76.463,-162.665 	"/>
	<path fill="#1A1A1A" stroke="#FFFFFF" stroke-width="10" stroke-linejoin="round" stroke-miterlimit="10" d="M16.744-131.383
		c0-5.267-0.863-9.92-2.589-13.96c-1.726-4.039-4.137-7.438-7.233-10.196s-6.78-4.849-11.05-6.272
		c-4.271-1.424-8.95-2.135-14.04-2.135c-4.093,0-8.212,0.258-12.358,0.774s-8.176,1.397-12.091,2.643l-1.495,69.504
		c1.673,0.178,3.31,0.311,4.911,0.4c1.601,0.089,3.239,0.133,4.911,0.133c4.484,0,8.853-0.32,13.106-0.961
		c4.253-0.641,8.265-1.646,12.038-3.016c3.772-1.37,7.242-3.123,10.41-5.258c3.167-2.135,5.899-4.724,8.194-7.767
		c2.296-3.043,4.084-6.539,5.365-10.49C16.103-121.934,16.744-126.401,16.744-131.383z M-6.184-121.374
		c-0.694,1.833-1.682,3.47-2.963,4.911c-1.281,1.441-2.803,2.651-4.564,3.63c-1.762,0.979-3.71,1.628-5.845,1.948l2.135-30.962
		c2.278,0.071,4.199,0.489,5.765,1.255c1.566,0.765,2.829,1.797,3.79,3.096c0.961,1.299,1.655,2.829,2.082,4.591
		c0.427,1.762,0.641,3.657,0.641,5.685C-5.143-125.155-5.49-123.207-6.184-121.374z"/>
	<path fill="#1A1A1A" stroke="#FFFFFF" stroke-width="10" stroke-linejoin="round" stroke-miterlimit="10" d="M34.093-163.947
		L12.847-92.841l27.225,2.669l2.669-12.064h12.171l3.203,12.064l26.478-3.416l-20.819-71.853L34.093-163.947z M44.983-118.571
		l3.95-18.577l4.057,18.577H44.983z"/>
	<path fill="#ED1C24" stroke="#FFFFFF" stroke-width="10" stroke-linejoin="round" stroke-miterlimit="10" d="M130.929-121.667
		l1.068-16.549h-19.645v-6.726l22.634-1.174c0.285-3.345,0.516-6.655,0.694-9.929c0.178-3.274,0.374-6.584,0.587-9.929H87.049
		L85.34-88.997l27.012-0.534l-0.107-31.603L130.929-121.667z"/>
	<path fill="#ED1C24" stroke="#FFFFFF" stroke-width="10" stroke-linejoin="round" stroke-miterlimit="10" d="M148.813-163.947
		l-21.246,71.106l27.225,2.669l2.669-12.064h12.171l3.203,12.064l26.478-3.416l-20.819-71.853L148.813-163.947z M159.703-118.571
		l3.95-18.577l4.057,18.577H159.703z"/>
	<path fill="#ED1C24" stroke="#FFFFFF" stroke-width="10" stroke-linejoin="round" stroke-miterlimit="10" d="M243.567-113.767
		c-1.388,0.463-2.776,0.828-4.164,1.094c-1.388,0.267-2.74,0.4-4.057,0.4c-1.886,0-3.603-0.249-5.151-0.747
		c-1.548-0.498-2.865-1.237-3.95-2.215c-1.085-0.979-1.922-2.207-2.509-3.683c-0.587-1.477-0.881-3.212-0.881-5.205
		c0-2.74,0.525-5.116,1.575-7.127c1.05-2.011,2.456-3.674,4.217-4.991s3.79-2.296,6.086-2.936c2.296-0.641,4.707-0.961,7.233-0.961
		c1.032,0,2.046,0.053,3.043,0.16c0.997,0.107,2.011,0.303,3.043,0.587l1.922-22.527c-2.313-1.068-4.733-1.797-7.26-2.189
		c-2.527-0.392-5.018-0.587-7.474-0.587c-6.157,0-11.611,1.059-16.362,3.176c-4.751,2.118-8.737,5.036-11.958,8.755
		c-3.221,3.719-5.659,8.105-7.313,13.159c-1.655,5.054-2.482,10.499-2.482,16.335c0,4.876,0.819,9.467,2.456,13.773
		c1.637,4.306,3.941,8.088,6.913,11.344c2.972,3.256,6.53,5.828,10.676,7.714c4.146,1.886,8.746,2.829,13.799,2.829
		c1.53,0,3.141-0.107,4.831-0.32c1.69-0.214,3.381-0.525,5.071-0.934c1.69-0.409,3.336-0.89,4.938-1.441
		c1.601-0.552,3.096-1.183,4.484-1.895l0.854-25.09c-1.103,0.676-2.296,1.317-3.577,1.922
		C246.29-114.763,244.955-114.229,243.567-113.767z"/>
	<path fill="#ED1C24" stroke="#FFFFFF" stroke-width="10" stroke-linejoin="round" stroke-miterlimit="10" d="M312.431-117.29
		l3.95-49.005h-9.246c0.094-29.306,0.175-58.611,0.314-87.916c0.011-2.666-0.171-5.192-1.824-7.403h-2.482
		c-4.967,6.21-6.938,13.61-8.313,21.211c-3.576,19.785-3.514,39.775-3.365,59.779c0.019,2.748,0.674,4.802,2.986,6.258
		c3.052,1.924,4.536,4.535,3.952,8.071h-9.782l-1.708,76.231l44.948-3.523l2.242-23.702H312.431z"/>
	<path fill="#ED1C24" stroke="#FFFFFF" stroke-width="10" stroke-linejoin="round" stroke-miterlimit="10" d="M275.393-172.874
		c7.698-4.307,9.748-11.337,9.794-19.587c0.127-21.652-0.395-43.289-1.259-64.922c-0.035-0.872,0.406-1.99-1.08-2.55
		c-1.083,1.215-0.734,2.799-0.836,4.201c-1.161,16.09-2.26,32.182-3.416,48.275c-0.089,1.278,0.325,3.384-1.5,3.319
		c-1.749-0.062-1.288-2.122-1.332-3.43c-0.463-14.471-0.899-28.942-1.34-43.41c-0.024-0.828-0.035-1.654-0.07-2.482
		c-0.035-0.812,0.043-1.792-1.186-1.681c-0.92,0.087-0.839,0.928-0.888,1.592c-0.192,2.75-0.382,5.503-0.558,8.253
		c-0.839,13.212-1.667,26.422-2.515,39.632c-0.084,1.307,0.119,3.181-1.7,3.107c-1.435-0.057-1.275-1.835-1.397-3.029
		c-0.057-0.549-0.051-1.102-0.076-1.654c-0.696-16.255-1.372-32.51-2.119-48.765c-0.065-1.375,0.514-3.013-0.945-4.19
		c-1.497,1.248-0.91,2.891-0.983,4.301c-0.82,15.835-1.567,31.676-2.342,47.514c-0.054,1.099-0.07,2.217-0.309,3.283
		c-0.092,0.412-0.736,0.95-1.148,0.969c-0.398,0.019-1.077-0.493-1.186-0.893c-0.244-0.912-0.241-1.897-0.29-2.856
		c-0.804-16.111-1.583-32.226-2.433-48.334c-0.065-1.218,0.631-2.761-1.137-3.798c-1.253,2.385-0.707,4.883-0.804,7.238
		c-0.842,20.25-2.239,40.481-2.101,60.762c0.046,6.762,1.933,13.185,7.825,16.932c3.779,2.401,4.986,4.959,4.369,9.009
		c-0.151,0.978-0.095,1.988-0.073,2.993l-7.799,0.41l2.135,72.387l22.528-1.174l3.737-72.707l-9.216,0.485
		c0.029-2.044,0.074-4.087,0.041-6.129C273.767-171.163,274.151-172.178,275.393-172.874z"/>
</g>
<g>
	<path fill="#1A1A1A" d="M-83.936-155.726c-1.566-1.993-3.425-3.71-5.579-5.151c-2.153-1.441-4.484-2.643-6.993-3.603
		c-2.509-0.961-5.134-1.664-7.874-2.109c-2.74-0.445-5.481-0.667-8.221-0.667c-4.84,0-9.538,0.338-14.093,1.014
		c-4.555,0.676-9.111,1.69-13.666,3.043c-0.214,4.413-0.303,8.79-0.267,13.132c0.036,4.342,0.018,8.684-0.053,13.025
		c-0.071,8.221-0.125,16.371-0.16,24.449c-0.036,8.079-0.053,16.193-0.053,24.343h24.876v-24.876
		c2.847-0.036,5.748-0.258,8.701-0.667c2.954-0.409,5.81-1.05,8.568-1.922c2.758-0.872,5.347-2.002,7.767-3.39
		c2.42-1.388,4.529-3.078,6.326-5.071c1.797-1.993,3.212-4.324,4.244-6.993c1.032-2.669,1.548-5.73,1.548-9.182
		c0-3.167-0.454-6.023-1.361-8.568C-81.134-151.464-82.37-153.733-83.936-155.726z M-103.394-134.88
		c-0.552,1.085-1.29,2.029-2.215,2.829c-0.925,0.801-1.984,1.415-3.176,1.842c-1.192,0.427-2.429,0.641-3.71,0.641
		c-0.498,0-0.979,0-1.441,0c-0.463,0-0.943-0.036-1.441-0.107l0.641-15.588c0.712-0.178,1.468-0.329,2.269-0.454
		c0.801-0.125,1.575-0.187,2.322-0.187c2.242,0,4.066,0.65,5.472,1.949c1.406,1.299,2.109,3.105,2.109,5.418
		C-102.567-137.184-102.843-135.965-103.394-134.88z"/>
	<polygon fill="#1A1A1A" points="-74.327,-90.278 -51.8,-91.453 -48.063,-164.16 -76.463,-162.665 	"/>
	<path fill="#1A1A1A" d="M16.744-131.383c0-5.267-0.863-9.92-2.589-13.96c-1.726-4.039-4.137-7.438-7.233-10.196
		s-6.78-4.849-11.05-6.272c-4.271-1.424-8.95-2.135-14.04-2.135c-4.093,0-8.212,0.258-12.358,0.774s-8.176,1.397-12.091,2.643
		l-1.495,69.504c1.673,0.178,3.31,0.311,4.911,0.4c1.601,0.089,3.239,0.133,4.911,0.133c4.484,0,8.853-0.32,13.106-0.961
		c4.253-0.641,8.265-1.646,12.038-3.016c3.772-1.37,7.242-3.123,10.41-5.258c3.167-2.135,5.899-4.724,8.194-7.767
		c2.296-3.043,4.084-6.539,5.365-10.49C16.103-121.934,16.744-126.401,16.744-131.383z M-6.184-121.374
		c-0.694,1.833-1.682,3.47-2.963,4.911c-1.281,1.441-2.803,2.651-4.564,3.63c-1.762,0.979-3.71,1.628-5.845,1.948l2.135-30.962
		c2.278,0.071,4.199,0.489,5.765,1.255c1.566,0.765,2.829,1.797,3.79,3.096c0.961,1.299,1.655,2.829,2.082,4.591
		c0.427,1.762,0.641,3.657,0.641,5.685C-5.143-125.155-5.49-123.207-6.184-121.374z"/>
	<path fill="#1A1A1A" d="M34.093-163.947L12.847-92.841l27.225,2.669l2.669-12.064h12.171l3.203,12.064l26.478-3.416l-20.819-71.853
		L34.093-163.947z M44.983-118.571l3.95-18.577l4.057,18.577H44.983z"/>
	<path fill="#ED1C24" d="M130.929-121.667l1.068-16.549h-19.645v-6.726l22.634-1.174c0.285-3.345,0.516-6.655,0.694-9.929
		c0.178-3.274,0.374-6.584,0.587-9.929H87.049L85.34-88.997l27.012-0.534l-0.107-31.603L130.929-121.667z"/>
	<path fill="#ED1C24" d="M148.813-163.947l-21.246,71.106l27.225,2.669l2.669-12.064h12.171l3.203,12.064l26.478-3.416
		l-20.819-71.853L148.813-163.947z M159.703-118.571l3.95-18.577l4.057,18.577H159.703z"/>
	<path fill="#ED1C24" d="M243.567-113.767c-1.388,0.463-2.776,0.828-4.164,1.094c-1.388,0.267-2.74,0.4-4.057,0.4
		c-1.886,0-3.603-0.249-5.151-0.747c-1.548-0.498-2.865-1.237-3.95-2.215c-1.085-0.979-1.922-2.207-2.509-3.683
		c-0.587-1.477-0.881-3.212-0.881-5.205c0-2.74,0.525-5.116,1.575-7.127c1.05-2.011,2.456-3.674,4.217-4.991s3.79-2.296,6.086-2.936
		c2.296-0.641,4.707-0.961,7.233-0.961c1.032,0,2.046,0.053,3.043,0.16c0.997,0.107,2.011,0.303,3.043,0.587l1.922-22.527
		c-2.313-1.068-4.733-1.797-7.26-2.189c-2.527-0.392-5.018-0.587-7.474-0.587c-6.157,0-11.611,1.059-16.362,3.176
		c-4.751,2.118-8.737,5.036-11.958,8.755c-3.221,3.719-5.659,8.105-7.313,13.159c-1.655,5.054-2.482,10.499-2.482,16.335
		c0,4.876,0.819,9.467,2.456,13.773c1.637,4.306,3.941,8.088,6.913,11.344c2.972,3.256,6.53,5.828,10.676,7.714
		c4.146,1.886,8.746,2.829,13.799,2.829c1.53,0,3.141-0.107,4.831-0.32c1.69-0.214,3.381-0.525,5.071-0.934
		c1.69-0.409,3.336-0.89,4.938-1.441c1.601-0.552,3.096-1.183,4.484-1.895l0.854-25.09c-1.103,0.676-2.296,1.317-3.577,1.922
		C246.29-114.763,244.955-114.229,243.567-113.767z"/>
	<path fill="#ED1C24" d="M312.431-117.29l3.95-49.005h-9.246c0.094-29.306,0.175-58.611,0.314-87.916
		c0.011-2.666-0.171-5.192-1.824-7.403h-2.482c-4.967,6.21-6.938,13.61-8.313,21.211c-3.576,19.785-3.514,39.775-3.365,59.779
		c0.019,2.748,0.674,4.802,2.986,6.258c3.052,1.924,4.536,4.535,3.952,8.071h-9.782l-1.708,76.231l44.948-3.523l2.242-23.702
		H312.431z"/>
	<path fill="#ED1C24" d="M275.393-172.874c7.698-4.307,9.748-11.337,9.794-19.587c0.127-21.652-0.395-43.289-1.259-64.922
		c-0.035-0.872,0.406-1.99-1.08-2.55c-1.083,1.215-0.734,2.799-0.836,4.201c-1.161,16.09-2.26,32.182-3.416,48.275
		c-0.089,1.278,0.325,3.384-1.5,3.319c-1.749-0.062-1.288-2.122-1.332-3.43c-0.463-14.471-0.899-28.942-1.34-43.41
		c-0.024-0.828-0.035-1.654-0.07-2.482c-0.035-0.812,0.043-1.792-1.186-1.681c-0.92,0.087-0.839,0.928-0.888,1.592
		c-0.192,2.75-0.382,5.503-0.558,8.253c-0.839,13.212-1.667,26.422-2.515,39.632c-0.084,1.307,0.119,3.181-1.7,3.107
		c-1.435-0.057-1.275-1.835-1.397-3.029c-0.057-0.549-0.051-1.102-0.076-1.654c-0.696-16.255-1.372-32.51-2.119-48.765
		c-0.065-1.375,0.514-3.013-0.945-4.19c-1.497,1.248-0.91,2.891-0.983,4.301c-0.82,15.835-1.567,31.676-2.342,47.514
		c-0.054,1.099-0.07,2.217-0.309,3.283c-0.092,0.412-0.736,0.95-1.148,0.969c-0.398,0.019-1.077-0.493-1.186-0.893
		c-0.244-0.912-0.241-1.897-0.29-2.856c-0.804-16.111-1.583-32.226-2.433-48.334c-0.065-1.218,0.631-2.761-1.137-3.798
		c-1.253,2.385-0.707,4.883-0.804,7.238c-0.842,20.25-2.239,40.481-2.101,60.762c0.046,6.762,1.933,13.185,7.825,16.932
		c3.779,2.401,4.986,4.959,4.369,9.009c-0.151,0.978-0.095,1.988-0.073,2.993l-7.799,0.41l2.135,72.387l22.528-1.174l3.737-72.707
		l-9.216,0.485c0.029-2.044,0.074-4.087,0.041-6.129C273.767-171.163,274.151-172.178,275.393-172.874z"/>
</g>
<g>
	
		<path fill="#1A1A1A" stroke="#FFFFFF" stroke-width="2" stroke-linecap="round" stroke-linejoin="round" stroke-miterlimit="10" d="
		M19.696,34.164c-0.436-0.555-0.953-1.032-1.552-1.433c-0.599-0.401-1.248-0.735-1.946-1.003c-0.698-0.267-1.428-0.463-2.191-0.587
		c-0.762-0.124-1.525-0.186-2.287-0.186c-1.347,0-2.654,0.094-3.921,0.282c-1.267,0.188-2.535,0.47-3.802,0.847
		c-0.059,1.228-0.084,2.446-0.074,3.654c0.01,1.208,0.005,2.416-0.015,3.624c-0.02,2.287-0.035,4.555-0.045,6.803
		c-0.01,2.248-0.015,4.506-0.015,6.773h6.922v-6.922c0.792-0.01,1.599-0.072,2.421-0.186c0.822-0.114,1.617-0.292,2.384-0.535
		c0.767-0.243,1.488-0.557,2.161-0.943c0.673-0.386,1.26-0.857,1.76-1.411c0.5-0.554,0.894-1.203,1.181-1.946
		c0.287-0.743,0.431-1.594,0.431-2.555c0-0.881-0.126-1.676-0.379-2.384C20.476,35.35,20.132,34.719,19.696,34.164z M14.282,39.964
		c-0.153,0.302-0.359,0.564-0.616,0.787c-0.257,0.223-0.552,0.394-0.884,0.512c-0.332,0.119-0.676,0.178-1.032,0.178
		c-0.139,0-0.272,0-0.401,0c-0.129,0-0.262-0.01-0.401-0.03l0.178-4.337c0.198-0.05,0.408-0.092,0.631-0.126
		c0.223-0.035,0.438-0.052,0.646-0.052c0.624,0,1.131,0.181,1.522,0.542c0.391,0.361,0.587,0.864,0.587,1.508
		C14.512,39.323,14.435,39.662,14.282,39.964z"/>
	
		<polygon fill="#1A1A1A" stroke="#FFFFFF" stroke-width="2" stroke-linecap="round" stroke-linejoin="round" stroke-miterlimit="10" points="
		22.37,52.374 28.638,52.048 29.677,31.817 21.775,32.233 	"/>
	
		<path fill="#1A1A1A" stroke="#FFFFFF" stroke-width="2" stroke-linecap="round" stroke-linejoin="round" stroke-miterlimit="10" d="
		M47.709,40.937c0-1.466-0.24-2.76-0.72-3.884c-0.48-1.124-1.151-2.07-2.013-2.837c-0.861-0.767-1.886-1.349-3.075-1.745
		c-1.188-0.396-2.49-0.594-3.906-0.594c-1.139,0-2.285,0.072-3.439,0.215c-1.154,0.144-2.275,0.389-3.364,0.735l-0.416,19.339
		c0.465,0.05,0.921,0.087,1.366,0.111c0.446,0.025,0.901,0.037,1.366,0.037c1.248,0,2.463-0.089,3.646-0.267
		c1.183-0.178,2.3-0.458,3.349-0.839c1.05-0.381,2.015-0.869,2.896-1.463c0.881-0.594,1.641-1.315,2.28-2.161
		c0.639-0.847,1.136-1.82,1.493-2.919C47.531,43.566,47.709,42.324,47.709,40.937z M41.33,43.722
		c-0.193,0.51-0.468,0.965-0.824,1.366c-0.356,0.401-0.78,0.738-1.27,1.01c-0.49,0.272-1.032,0.453-1.626,0.542l0.594-8.615
		c0.634,0.02,1.168,0.136,1.604,0.349c0.436,0.213,0.787,0.5,1.055,0.861c0.267,0.361,0.46,0.787,0.579,1.277
		c0.119,0.49,0.178,1.017,0.178,1.582C41.619,42.67,41.523,43.212,41.33,43.722z"/>
	
		<path fill="#1A1A1A" stroke="#FFFFFF" stroke-width="2" stroke-linecap="round" stroke-linejoin="round" stroke-miterlimit="10" d="
		M52.536,31.877l-5.912,19.784l7.575,0.743l0.743-3.357h3.387l0.891,3.357l7.367-0.951l-5.793-19.992L52.536,31.877z M55.567,44.502
		l1.099-5.169l1.129,5.169H55.567z"/>
	
		<path fill="#ED1C24" stroke="#FFFFFF" stroke-width="2" stroke-linecap="round" stroke-linejoin="round" stroke-miterlimit="10" d="
		M79.48,43.641l0.297-4.605h-5.466v-1.871l6.298-0.327c0.079-0.931,0.144-1.852,0.193-2.763c0.05-0.911,0.104-1.832,0.163-2.763
		H67.271l-0.475,21.418l7.516-0.149l-0.03-8.793L79.48,43.641z"/>
	
		<path fill="#ED1C24" stroke="#FFFFFF" stroke-width="2" stroke-linecap="round" stroke-linejoin="round" stroke-miterlimit="10" d="
		M84.456,31.877l-5.912,19.784l7.575,0.743l0.743-3.357h3.387l0.891,3.357l7.367-0.951l-5.793-19.992L84.456,31.877z M87.486,44.502
		l1.099-5.169l1.129,5.169H87.486z"/>
	
		<path fill="#ED1C24" stroke="#FFFFFF" stroke-width="2" stroke-linecap="round" stroke-linejoin="round" stroke-miterlimit="10" d="
		M110.82,45.839c-0.386,0.129-0.772,0.23-1.159,0.304c-0.386,0.074-0.762,0.111-1.129,0.111c-0.525,0-1.003-0.069-1.433-0.208
		c-0.431-0.139-0.797-0.344-1.099-0.616c-0.302-0.272-0.535-0.614-0.698-1.025c-0.163-0.411-0.245-0.894-0.245-1.448
		c0-0.762,0.146-1.423,0.438-1.983c0.292-0.559,0.683-1.022,1.173-1.389c0.49-0.366,1.055-0.639,1.693-0.817
		c0.639-0.178,1.31-0.267,2.013-0.267c0.287,0,0.569,0.015,0.847,0.045c0.277,0.03,0.559,0.084,0.847,0.163l0.535-6.268
		c-0.644-0.297-1.317-0.5-2.02-0.609c-0.703-0.109-1.396-0.163-2.079-0.163c-1.713,0-3.231,0.295-4.552,0.884
		c-1.322,0.589-2.431,1.401-3.327,2.436c-0.896,1.035-1.574,2.255-2.035,3.661c-0.46,1.406-0.691,2.921-0.691,4.545
		c0,1.357,0.228,2.634,0.683,3.832c0.456,1.198,1.097,2.25,1.924,3.156c0.827,0.906,1.817,1.621,2.971,2.146
		c1.154,0.525,2.433,0.787,3.84,0.787c0.426,0,0.874-0.03,1.344-0.089c0.47-0.059,0.941-0.146,1.411-0.26
		c0.47-0.114,0.928-0.248,1.374-0.401c0.446-0.153,0.861-0.329,1.248-0.527l0.238-6.981c-0.307,0.188-0.639,0.366-0.995,0.535
		C111.578,45.562,111.207,45.71,110.82,45.839z"/>
	
		<path fill="#ED1C24" stroke="#FFFFFF" stroke-width="2" stroke-linecap="round" stroke-linejoin="round" stroke-miterlimit="10" d="
		M129.981,44.859l1.099-13.635h-2.572c0.026-8.154,0.049-16.308,0.087-24.462c0.003-0.742-0.047-1.445-0.508-2.06h-0.691
		c-1.382,1.728-1.93,3.787-2.313,5.902c-0.995,5.505-0.978,11.067-0.936,16.633c0.005,0.764,0.188,1.336,0.831,1.741
		c0.849,0.535,1.262,1.262,1.1,2.246h-2.722l-0.475,21.21l12.506-0.98l0.624-6.595H129.981z"/>
	
		<path fill="#ED1C24" stroke="#FFFFFF" stroke-width="2" stroke-linecap="round" stroke-linejoin="round" stroke-miterlimit="10" d="
		M119.676,29.393c2.142-1.198,2.712-3.154,2.725-5.45c0.035-6.025-0.11-12.045-0.35-18.064c-0.01-0.243,0.113-0.554-0.301-0.709
		c-0.301,0.338-0.204,0.779-0.233,1.169c-0.323,4.477-0.629,8.954-0.951,13.432c-0.025,0.356,0.09,0.941-0.417,0.923
		c-0.487-0.017-0.358-0.59-0.37-0.954c-0.129-4.026-0.25-8.053-0.373-12.079c-0.007-0.23-0.01-0.46-0.02-0.691
		c-0.01-0.226,0.012-0.499-0.33-0.468c-0.256,0.024-0.233,0.258-0.247,0.443c-0.053,0.765-0.106,1.531-0.155,2.296
		c-0.233,3.676-0.464,7.352-0.7,11.027c-0.023,0.364,0.033,0.885-0.473,0.865c-0.399-0.016-0.355-0.511-0.389-0.843
		c-0.016-0.153-0.014-0.307-0.021-0.46c-0.194-4.523-0.382-9.046-0.59-13.568c-0.018-0.383,0.143-0.838-0.263-1.166
		c-0.417,0.347-0.253,0.804-0.273,1.197c-0.228,4.406-0.436,8.814-0.652,13.22c-0.015,0.306-0.02,0.617-0.086,0.914
		c-0.026,0.115-0.205,0.264-0.319,0.27c-0.111,0.005-0.3-0.137-0.33-0.249c-0.068-0.254-0.067-0.528-0.081-0.795
		c-0.224-4.483-0.441-8.966-0.677-13.448c-0.018-0.339,0.176-0.768-0.316-1.057c-0.349,0.664-0.197,1.359-0.224,2.014
		c-0.234,5.634-0.623,11.264-0.584,16.906c0.013,1.881,0.538,3.669,2.177,4.711c1.051,0.668,1.387,1.38,1.216,2.507
		c-0.042,0.272-0.026,0.553-0.02,0.833l-2.17,0.114l0.594,20.141l6.268-0.327l1.04-20.23l-2.564,0.135
		c0.008-0.569,0.021-1.137,0.011-1.705C119.223,29.869,119.33,29.587,119.676,29.393z"/>
</g>
<g>
	<path fill="#1A1A1A" d="M19.696,34.164c-0.436-0.555-0.953-1.032-1.552-1.433c-0.599-0.401-1.248-0.735-1.946-1.003
		c-0.698-0.267-1.428-0.463-2.191-0.587c-0.762-0.124-1.525-0.186-2.287-0.186c-1.347,0-2.654,0.094-3.921,0.282
		c-1.267,0.188-2.535,0.47-3.802,0.847c-0.059,1.228-0.084,2.446-0.074,3.654c0.01,1.208,0.005,2.416-0.015,3.624
		c-0.02,2.287-0.035,4.555-0.045,6.803c-0.01,2.248-0.015,4.506-0.015,6.773h6.922v-6.922c0.792-0.01,1.599-0.072,2.421-0.186
		c0.822-0.114,1.617-0.292,2.384-0.535c0.767-0.243,1.488-0.557,2.161-0.943c0.673-0.386,1.26-0.857,1.76-1.411
		c0.5-0.554,0.894-1.203,1.181-1.946c0.287-0.743,0.431-1.594,0.431-2.555c0-0.881-0.126-1.676-0.379-2.384
		C20.476,35.35,20.132,34.719,19.696,34.164z M14.282,39.964c-0.153,0.302-0.359,0.564-0.616,0.787
		c-0.257,0.223-0.552,0.394-0.884,0.512c-0.332,0.119-0.676,0.178-1.032,0.178c-0.139,0-0.272,0-0.401,0
		c-0.129,0-0.262-0.01-0.401-0.03l0.178-4.337c0.198-0.05,0.408-0.092,0.631-0.126c0.223-0.035,0.438-0.052,0.646-0.052
		c0.624,0,1.131,0.181,1.522,0.542c0.391,0.361,0.587,0.864,0.587,1.508C14.512,39.323,14.435,39.662,14.282,39.964z"/>
	<polygon fill="#1A1A1A" points="22.37,52.374 28.638,52.048 29.677,31.817 21.775,32.233 	"/>
	<path fill="#1A1A1A" d="M47.709,40.937c0-1.466-0.24-2.76-0.72-3.884c-0.48-1.124-1.151-2.07-2.013-2.837
		c-0.861-0.767-1.886-1.349-3.075-1.745c-1.188-0.396-2.49-0.594-3.906-0.594c-1.139,0-2.285,0.072-3.439,0.215
		c-1.154,0.144-2.275,0.389-3.364,0.735l-0.416,19.339c0.465,0.05,0.921,0.087,1.366,0.111c0.446,0.025,0.901,0.037,1.366,0.037
		c1.248,0,2.463-0.089,3.646-0.267c1.183-0.178,2.3-0.458,3.349-0.839c1.05-0.381,2.015-0.869,2.896-1.463
		c0.881-0.594,1.641-1.315,2.28-2.161c0.639-0.847,1.136-1.82,1.493-2.919C47.531,43.566,47.709,42.324,47.709,40.937z
		 M41.33,43.722c-0.193,0.51-0.468,0.965-0.824,1.366c-0.356,0.401-0.78,0.738-1.27,1.01c-0.49,0.272-1.032,0.453-1.626,0.542
		l0.594-8.615c0.634,0.02,1.168,0.136,1.604,0.349c0.436,0.213,0.787,0.5,1.055,0.861c0.267,0.361,0.46,0.787,0.579,1.277
		c0.119,0.49,0.178,1.017,0.178,1.582C41.619,42.67,41.523,43.212,41.33,43.722z"/>
	<path fill="#1A1A1A" d="M52.536,31.877l-5.912,19.784l7.575,0.743l0.743-3.357h3.387l0.891,3.357l7.367-0.951l-5.793-19.992
		L52.536,31.877z M55.567,44.502l1.099-5.169l1.129,5.169H55.567z"/>
	<path fill="#ED1C24" d="M79.48,43.641l0.297-4.605h-5.466v-1.871l6.298-0.327c0.079-0.931,0.144-1.852,0.193-2.763
		c0.05-0.911,0.104-1.832,0.163-2.763H67.271l-0.475,21.418l7.516-0.149l-0.03-8.793L79.48,43.641z"/>
	<path fill="#ED1C24" d="M84.456,31.877l-5.912,19.784l7.575,0.743l0.743-3.357h3.387l0.891,3.357l7.367-0.951l-5.793-19.992
		L84.456,31.877z M87.486,44.502l1.099-5.169l1.129,5.169H87.486z"/>
	<path fill="#ED1C24" d="M110.82,45.839c-0.386,0.129-0.772,0.23-1.159,0.304c-0.386,0.074-0.762,0.111-1.129,0.111
		c-0.525,0-1.003-0.069-1.433-0.208c-0.431-0.139-0.797-0.344-1.099-0.616c-0.302-0.272-0.535-0.614-0.698-1.025
		c-0.163-0.411-0.245-0.894-0.245-1.448c0-0.762,0.146-1.423,0.438-1.983c0.292-0.559,0.683-1.022,1.173-1.389
		c0.49-0.366,1.055-0.639,1.693-0.817c0.639-0.178,1.31-0.267,2.013-0.267c0.287,0,0.569,0.015,0.847,0.045
		c0.277,0.03,0.559,0.084,0.847,0.163l0.535-6.268c-0.644-0.297-1.317-0.5-2.02-0.609c-0.703-0.109-1.396-0.163-2.079-0.163
		c-1.713,0-3.231,0.295-4.552,0.884c-1.322,0.589-2.431,1.401-3.327,2.436c-0.896,1.035-1.574,2.255-2.035,3.661
		c-0.46,1.406-0.691,2.921-0.691,4.545c0,1.357,0.228,2.634,0.683,3.832c0.456,1.198,1.097,2.25,1.924,3.156
		c0.827,0.906,1.817,1.621,2.971,2.146c1.154,0.525,2.433,0.787,3.84,0.787c0.426,0,0.874-0.03,1.344-0.089
		c0.47-0.059,0.941-0.146,1.411-0.26c0.47-0.114,0.928-0.248,1.374-0.401c0.446-0.153,0.861-0.329,1.248-0.527l0.238-6.981
		c-0.307,0.188-0.639,0.366-0.995,0.535C111.578,45.562,111.207,45.71,110.82,45.839z"/>
	<path fill="#ED1C24" d="M129.981,44.859l1.099-13.635h-2.572c0.026-8.154,0.049-16.308,0.087-24.462
		c0.003-0.742-0.047-1.445-0.508-2.06h-0.691c-1.382,1.728-1.93,3.787-2.313,5.902c-0.995,5.505-0.978,11.067-0.936,16.633
		c0.005,0.764,0.188,1.336,0.831,1.741c0.849,0.535,1.262,1.262,1.1,2.246h-2.722l-0.475,21.21l12.506-0.98l0.624-6.595H129.981z"/>
	<path fill="#ED1C24" d="M119.676,29.393c2.142-1.198,2.712-3.154,2.725-5.45c0.035-6.025-0.11-12.045-0.35-18.064
		c-0.01-0.243,0.113-0.554-0.301-0.709c-0.301,0.338-0.204,0.779-0.233,1.169c-0.323,4.477-0.629,8.954-0.951,13.432
		c-0.025,0.356,0.09,0.941-0.417,0.923c-0.487-0.017-0.358-0.59-0.37-0.954c-0.129-4.026-0.25-8.053-0.373-12.079
		c-0.007-0.23-0.01-0.46-0.02-0.691c-0.01-0.226,0.012-0.499-0.33-0.468c-0.256,0.024-0.233,0.258-0.247,0.443
		c-0.053,0.765-0.106,1.531-0.155,2.296c-0.233,3.676-0.464,7.352-0.7,11.027c-0.023,0.364,0.033,0.885-0.473,0.865
		c-0.399-0.016-0.355-0.511-0.389-0.843c-0.016-0.153-0.014-0.307-0.021-0.46c-0.194-4.523-0.382-9.046-0.59-13.568
		c-0.018-0.383,0.143-0.838-0.263-1.166c-0.417,0.347-0.253,0.804-0.273,1.197c-0.228,4.406-0.436,8.814-0.652,13.22
		c-0.015,0.306-0.02,0.617-0.086,0.914c-0.026,0.115-0.205,0.264-0.319,0.27c-0.111,0.005-0.3-0.137-0.33-0.249
		c-0.068-0.254-0.067-0.528-0.081-0.795c-0.224-4.483-0.441-8.966-0.677-13.448c-0.018-0.339,0.176-0.768-0.316-1.057
		c-0.349,0.664-0.197,1.359-0.224,2.014c-0.234,5.634-0.623,11.264-0.584,16.906c0.013,1.881,0.538,3.669,2.177,4.711
		c1.051,0.668,1.387,1.38,1.216,2.507c-0.042,0.272-0.026,0.553-0.02,0.833l-2.17,0.114l0.594,20.141l6.268-0.327l1.04-20.23
		l-2.564,0.135c0.008-0.569,0.021-1.137,0.011-1.705C119.223,29.869,119.33,29.587,119.676,29.393z"/>
</g>
</svg>
