<?xml version="1.0" encoding="utf-8"?>
<!-- Generator: Adobe Illustrator 17.0.0, SVG Export Plug-In . SVG Version: 6.00 Build 0)  -->
<!DOCTYPE svg PUBLIC "-//W3C//DTD SVG 1.1//EN" "http://www.w3.org/Graphics/SVG/1.1/DTD/svg11.dtd">
<svg version="1.1" id="Layer_1" xmlns="http://www.w3.org/2000/svg" xmlns:xlink="http://www.w3.org/1999/xlink" x="0px" y="0px"
	 width="35px" height="35px" viewBox="0 0 35 35" enable-background="new 0 0 35 35" xml:space="preserve">
<path fill="#FFFFFF" d="M-21,4.5c0,1.933-1.567,3.5-3.5,3.5h-26C-52.433,8-54,6.433-54,4.5l0,0c0-1.933,1.567-3.5,3.5-3.5h26
	C-22.567,1-21,2.567-21,4.5L-21,4.5z"/>
<path fill="#FFFFFF" d="M-21,29.5c0,1.933-1.567,3.5-3.5,3.5h-26c-1.933,0-3.5-1.567-3.5-3.5l0,0c0-1.933,1.567-3.5,3.5-3.5h26
	C-22.567,26-21,27.567-21,29.5L-21,29.5z"/>
<path fill="#FFFFFF" d="M-21,17.734C-21,19.538-22.462,21-24.266,21h-26.469C-52.538,21-54,19.538-54,17.734v-0.469
	C-54,15.462-52.538,14-50.734,14h26.469C-22.462,14-21,15.462-21,17.266V17.734z"/>
<path fill="#FFFFFF" d="M33.743,31.893l-5.084-5.084c2.318-2.737,3.723-6.269,3.723-10.128c0-8.658-7.044-15.701-15.701-15.701
	S0.98,8.023,0.98,16.681s7.044,15.701,15.701,15.701c3.859,0,7.391-1.405,10.128-3.723l5.084,5.084
	c0.256,0.256,0.59,0.383,0.925,0.383s0.67-0.128,0.925-0.383C34.254,33.232,34.254,32.403,33.743,31.893z M3.597,16.681
	c0-7.215,5.869-13.084,13.084-13.084c7.215,0,13.084,5.87,13.084,13.084c0,3.574-1.443,6.815-3.774,9.179
	c-0.024,0.021-0.055,0.029-0.079,0.052c-0.023,0.023-0.031,0.054-0.052,0.079c-2.364,2.331-5.605,3.774-9.179,3.774
	C9.466,29.765,3.597,23.895,3.597,16.681z"/>
<g>
	<g>
		<path fill="#333333" d="M202.884,131.791c-2.611,0-4.735-2.124-4.735-4.735c0-2.611,2.124-4.735,4.735-4.735
			c2.611,0,4.735,2.124,4.735,4.735C207.619,129.667,205.495,131.791,202.884,131.791z M202.884,123.455
			c-1.986,0-3.601,1.615-3.601,3.601c0,1.986,1.615,3.601,3.601,3.601c1.986,0,3.601-1.615,3.601-3.601
			C206.485,125.07,204.87,123.455,202.884,123.455z"/>
	</g>
	<g>
		<path fill="#333333" d="M221.372,131.791c-2.611,0-4.735-2.124-4.735-4.735c0-2.611,2.124-4.735,4.735-4.735
			s4.735,2.124,4.735,4.735C226.107,129.667,223.983,131.791,221.372,131.791z M221.372,123.455c-1.986,0-3.601,1.615-3.601,3.601
			c0,1.986,1.615,3.601,3.601,3.601s3.601-1.615,3.601-3.601C224.973,125.07,223.358,123.455,221.372,123.455z"/>
	</g>
	<g>
		<path fill="#333333" d="M217.204,128h-10.208c-0.313,0-0.567-0.187-0.567-0.5s0.254-0.5,0.567-0.5h10.208
			c0.313,0,0.567,0.187,0.567,0.5S217.518,128,217.204,128z"/>
	</g>
	<g>
		<path fill="#333333" d="M221.837,123.51c-0.053,0-0.107-0.008-0.161-0.023c-0.3-0.089-0.472-0.404-0.383-0.705l7.053-23.85
			c0.04-0.211,0.234-0.656,0.933-1.484c0.711-0.842,2.104-1.449,4.701-1.449h4.549c0.313,0,0.567,0.187,0.567,0.5
			s-0.254,0.5-0.567,0.5h-4.549c-4.067,0-4.515,2.445-4.519,2.473c-0.004,0.027-0.01-0.111-0.017-0.085l-7.063,23.798
			C222.307,123.433,222.081,123.51,221.837,123.51z"/>
	</g>
	<g>
		<path fill="#333333" d="M223.216,120h-22.685c-0.269,0-0.501-0.959-0.555-1.223l-3.516-17.399
			c-0.035-0.167,0.008-0.189,0.116-0.321c0.108-0.132,0.269-0.057,0.44-0.057h31.305c0.313,0,0.567,0.187,0.567,0.5
			s-0.254,0.5-0.567,0.5h-30.609l3.282,16h22.223c0.313,0,0.567,0.687,0.567,1S223.529,120,223.216,120z"/>
	</g>
	<g>
		<path fill="#333333" d="M221.515,108h-18.828c-0.313,0-0.567-0.187-0.567-0.5s0.254-0.5,0.567-0.5h18.828
			c0.313,0,0.567,0.187,0.567,0.5S221.828,108,221.515,108z"/>
	</g>
	<g>
		<path fill="#333333" d="M221.515,113h-18.828c-0.313,0-0.567-0.187-0.567-0.5s0.254-0.5,0.567-0.5h18.828
			c0.313,0,0.567,0.187,0.567,0.5S221.828,113,221.515,113z"/>
	</g>
</g>
<g>
	<g>
		<path fill="#333333" d="M-2.116,94.791c-2.611,0-4.735-2.124-4.735-4.735c0-2.611,2.124-4.735,4.735-4.735
			s4.735,2.124,4.735,4.735C2.619,92.667,0.495,94.791-2.116,94.791z M-2.116,86.455c-1.986,0-3.601,1.615-3.601,3.601
			c0,1.986,1.615,3.601,3.601,3.601s3.601-1.615,3.601-3.601C1.485,88.07-0.13,86.455-2.116,86.455z"/>
	</g>
	<g>
		<path fill="#333333" d="M16.372,94.791c-2.611,0-4.735-2.124-4.735-4.735c0-2.611,2.124-4.735,4.735-4.735
			s4.735,2.124,4.735,4.735C21.107,92.667,18.983,94.791,16.372,94.791z M16.372,86.455c-1.986,0-3.601,1.615-3.601,3.601
			c0,1.986,1.615,3.601,3.601,3.601s3.601-1.615,3.601-3.601C19.973,88.07,18.358,86.455,16.372,86.455z"/>
	</g>
	<g>
		<path fill="#333333" d="M12.204,91H1.996c-0.313,0-0.567-0.187-0.567-0.5S1.683,90,1.996,90h10.208c0.313,0,0.567,0.187,0.567,0.5
			S12.518,91,12.204,91z"/>
	</g>
	<g>
		<path fill="#333333" d="M16.837,86.51c-0.053,0-0.107-0.008-0.161-0.023c-0.3-0.089-0.472-0.404-0.383-0.705l7.053-23.85
			c0.04-0.211,0.234-0.656,0.933-1.484C24.99,59.607,26.383,59,28.979,59h4.549c0.313,0,0.567,0.187,0.567,0.5S33.841,60,33.528,60
			h-4.549c-4.067,0-4.515,2.445-4.519,2.473c-0.004,0.027-0.01-0.111-0.017-0.085L17.38,86.186
			C17.307,86.433,17.081,86.51,16.837,86.51z"/>
	</g>
	<g>
		<path fill="#333333" d="M18.216,83H-4.469c-0.269,0-0.501-0.959-0.555-1.223L-8.54,64.379c-0.035-0.167,0.008-0.189,0.116-0.321
			C-8.317,63.925-8.155,64-7.985,64H23.32c0.313,0,0.567,0.187,0.567,0.5S23.633,65,23.32,65H-7.289l3.282,16h22.223
			c0.313,0,0.567,0.687,0.567,1S18.529,83,18.216,83z"/>
	</g>
	<g>
		<path fill="#333333" d="M16.515,71H-2.314c-0.313,0-0.567-0.187-0.567-0.5S-2.627,70-2.314,70h18.828
			c0.313,0,0.567,0.187,0.567,0.5S16.828,71,16.515,71z"/>
	</g>
	<g>
		<path fill="#333333" d="M16.515,76H-2.314c-0.313,0-0.567-0.187-0.567-0.5S-2.627,75-2.314,75h18.828
			c0.313,0,0.567,0.187,0.567,0.5S16.828,76,16.515,76z"/>
	</g>
</g>
<g>
	<path fill="#FFFFFF" d="M-21.107,55.512c-4.157,0-5.081,2.783-5.121,2.91l-0.651,2.389c-0.005,0-0.009,0.189-0.014,0.189h-27
		c-0.141,0-0.275-0.127-0.366-0.013c-0.092,0.113-0.132,0.167-0.111,0.314l2.089,14.28c0.036,0.249,0.239,0.42,0.476,0.42h20.392
		l-1.07,4.029C-34.788,80.219-36.619,82-36.817,85h-6.992c-0.208-3-2.224-5.046-4.7-5.046c-2.615,0-4.741,2.026-4.741,4.794
		s2.127,4.847,4.741,4.847c2.422,0,4.402-1.595,4.684-4.595h7.024c0.282,3,2.263,4.482,4.685,4.482c2.614,0,4.741-2.222,4.741-4.989
		c0-2.537-1.793-4.604-4.105-4.937l1.167-3.935c0.006-0.015,0.009-0.027,0.013-0.042l4.988-16.845
		c0.007-0.022,0.734-2.202,4.204-2.202c0.266,0,0.482-0.228,0.482-0.51S-20.841,55.512-21.107,55.512z M-51.39,75l-1.94-14h26.15
		l-3.93,14H-51.39z M-48.509,88.52c-2.083,0-3.777-1.794-3.777-3.998c0-2.205,1.695-3.999,3.777-3.999s3.777,1.794,3.777,3.999
		C-44.732,86.727-46.426,88.52-48.509,88.52z M-28.339,84.523c0,2.204-1.694,3.998-3.777,3.998c-2.083,0-3.777-1.794-3.777-3.998
		c0-2.205,1.695-3.999,3.777-3.999C-30.033,80.524-28.339,82.317-28.339,84.523z"/>
	<path fill="#FFFFFF" d="M-48.107,65h14.464c0.266,0,0.482-0.218,0.482-0.5s-0.216-0.5-0.482-0.5h-14.464
		c-0.266,0-0.482,0.218-0.482,0.5S-48.374,65-48.107,65z"/>
	<path fill="#FFFFFF" d="M-33.643,71h-14.464c-0.266,0-0.482,0.218-0.482,0.5s0.216,0.5,0.482,0.5h14.464
		c0.266,0,0.482-0.218,0.482-0.5S-33.376,71-33.643,71z"/>
</g>
</svg>
