<?xml version="1.0" encoding="utf-8"?>
<!-- Generator: Adobe Illustrator 17.0.0, SVG Export Plug-In . SVG Version: 6.00 Build 0)  -->
<!DOCTYPE svg PUBLIC "-//W3C//DTD SVG 1.1//EN" "http://www.w3.org/Graphics/SVG/1.1/DTD/svg11.dtd">
<svg version="1.1" id="Layer_1" xmlns="http://www.w3.org/2000/svg" xmlns:xlink="http://www.w3.org/1999/xlink" x="0px" y="0px"
	 width="50px" height="50px" viewBox="0 0 50 50" enable-background="new 0 0 50 50" xml:space="preserve">
<g>
	<path fill="#3B5998" d="M50,41.27c0,4.821-3.909,8.729-8.729,8.729H8.729C3.908,49.999,0,46.091,0,41.27V8.73
		c0-4.821,3.908-8.729,8.729-8.729h32.543C46.091,0.001,50,3.909,50,8.73V41.27z"/>
	<path fill="#FFFFFF" d="M35.849,16.542h-7.542v-4.949c0-1.855,1.231-2.289,2.099-2.289c0.864,0,5.321,0,5.321,0V1.141l-7.328-0.031
		c-8.136,0-9.988,6.09-9.988,9.988v5.445h-4.704v8.411h4.704c0,10.798,0,23.81,0,23.81h9.898c0,0,0-13.139,0-23.81h6.678
		L35.849,16.542z"/>
</g>
</svg>
