<?xml version="1.0" encoding="utf-8"?>
<!-- Generator: Adobe Illustrator 17.0.0, SVG Export Plug-In . SVG Version: 6.00 Build 0)  -->
<!DOCTYPE svg PUBLIC "-//W3C//DTD SVG 1.1//EN" "http://www.w3.org/Graphics/SVG/1.1/DTD/svg11.dtd">
<svg version="1.1" id="Layer_1" xmlns="http://www.w3.org/2000/svg" xmlns:xlink="http://www.w3.org/1999/xlink" x="0px" y="0px"
	 width="35px" height="35px" viewBox="0 0 35 35" enable-background="new 0 0 35 35" xml:space="preserve">
<g>
	<path fill="#FFFFFF" d="M-25.413-23.229c-0.347,0.347-0.339,0.929,0.185,1.453c0.533,0.524,1.078,0.504,1.405,0.177
		c0.339-0.339,0.355-0.904-0.198-1.457C-24.521-23.556-25.046-23.596-25.413-23.229z M-24.029-21.821
		c-0.222,0.222-0.601,0.093-0.928-0.25c-0.331-0.331-0.476-0.71-0.254-0.932c0.246-0.246,0.605-0.072,0.924,0.246
		C-23.94-22.41-23.795-22.055-24.029-21.821z"/>
	<polygon fill="#FFFFFF" points="-23.897,-24.707 -22.784,-20.511 -22.558,-20.737 -23.671,-24.933 	"/>
	
		<rect x="-20.784" y="-30.424" transform="matrix(0.7071 0.7071 -0.7071 0.7071 -25.6403 6.429)" fill="#FFFFFF" width="0.406" height="5.376"/>
	
		<rect x="-22.049" y="-26.72" transform="matrix(-0.7071 0.7071 -0.7071 -0.7071 -51.8019 -31.5764)" fill="#FFFFFF" width="5.376" height="0.406"/>
	<circle fill="#FFFFFF" cx="-26.493" cy="-19.475" r="0.76"/>
	<path fill="#FFFFFF" d="M-22.616-23.855c-0.347,0.347-0.339,0.928,0.19,1.457c0.529,0.521,1.074,0.5,1.4,0.174
		c0.335-0.335,0.351-0.9-0.202-1.453C-21.729-24.178-22.249-24.222-22.616-23.855z M-21.232-22.446
		c-0.218,0.218-0.601,0.093-0.932-0.246c-0.331-0.331-0.472-0.714-0.25-0.936c0.246-0.246,0.605-0.073,0.924,0.246
		C-21.143-23.035-20.998-22.68-21.232-22.446z"/>
	<path fill="#FFFFFF" d="M-22.436-37.088c-7.62,0-13.797,6.014-13.797,13.433c0,2.711,0.831,5.229,2.25,7.34l-4.656,7.199
		l7.324-4.264c2.4,1.968,5.495,3.159,8.879,3.159c7.62,0,13.797-6.014,13.797-13.433C-8.639-31.073-14.816-37.088-22.436-37.088z
		 M-10.848-18.658c-0.289,0.645-1.072,1.038-2.271,1.144c0.329,1.158,0.24,2.014-0.26,2.514c-0.303,0.303-0.737,0.44-1.292,0.44h0
		c-0.39,0-0.841-0.061-1.342-0.212c-0.107,1.261-0.513,2.084-1.182,2.374c-0.178,0.077-0.372,0.12-0.578,0.12
		c-0.624,0-1.352-0.349-2.167-1.042c-0.627,1.272-1.367,1.944-2.15,1.944c-0.803,0-1.56-0.705-2.198-2.042
		c-0.849,0.722-1.603,1.088-2.244,1.088c-0.213,0-0.414-0.041-0.596-0.123c-0.645-0.289-1.038-1.072-1.144-2.271
		c-1.163,0.331-2.029,0.241-2.53-0.26c-0.515-0.515-0.593-1.423-0.228-2.635c-1.261-0.107-2.076-0.513-2.366-1.182
		c-0.311-0.718,0.01-1.664,0.928-2.744c-1.272-0.627-1.942-1.367-1.942-2.15c0-0.803,0.705-1.56,2.042-2.198
		c-0.96-1.129-1.293-2.107-0.965-2.84c0.289-0.645,1.072-1.038,2.271-1.144c-0.329-1.158-0.24-2.03,0.26-2.53
		c0.515-0.515,1.419-0.595,2.635-0.228c0.107-1.261,0.513-2.076,1.182-2.366c0.178-0.077,0.372-0.116,0.578-0.116
		c0.624,0,1.352,0.351,2.167,1.044c0.627-1.272,1.367-1.942,2.15-1.942c0.803,0,1.56,0.705,2.198,2.042
		c0.849-0.722,1.603-1.088,2.244-1.088c0.213,0,0.413,0.041,0.596,0.123c0.645,0.289,1.038,1.072,1.144,2.271
		c1.163-0.331,2.029-0.241,2.53,0.26c0.515,0.515,0.593,1.423,0.228,2.635c1.261,0.107,2.076,0.513,2.366,1.182
		c0.311,0.718-0.01,1.664-0.928,2.745c1.272,0.627,1.942,1.367,1.942,2.15c0,0.803-0.705,1.56-2.042,2.198
		C-10.854-20.368-10.52-19.39-10.848-18.658z"/>
	
		<rect x="-18.416" y="-28.057" transform="matrix(-0.7071 -0.7071 0.7071 -0.7071 -13.1539 -56.1865)" fill="#FFFFFF" width="0.406" height="5.376"/>
	<path fill="#FFFFFF" d="M-12.127-25.592l-0.253-0.115l0.186-0.206c0.927-1.025,1.295-1.918,1.036-2.516
		c-0.243-0.562-1.03-0.893-2.276-0.955l-0.268-0.014l0.086-0.254c0.4-1.181,0.382-2.034-0.051-2.468
		c-0.418-0.418-1.248-0.446-2.365-0.085l-0.251,0.081l-0.014-0.264c-0.061-1.183-0.38-1.937-0.922-2.18
		c-0.614-0.276-1.538,0.111-2.609,1.078l-0.208,0.188l-0.113-0.257c-0.583-1.322-1.272-2.051-1.941-2.051
		c-0.651,0-1.325,0.693-1.897,1.95l-0.115,0.253l-0.206-0.186c-1.024-0.926-1.913-1.297-2.516-1.036
		c-0.562,0.243-0.893,1.03-0.955,2.276l-0.014,0.268l-0.254-0.086c-1.169-0.396-2.037-0.38-2.468,0.051
		c-0.42,0.42-0.45,1.238-0.085,2.365l0.081,0.251l-0.264,0.014c-1.183,0.061-1.937,0.38-2.18,0.922
		c-0.273,0.61,0.11,1.536,1.078,2.609l0.188,0.208l-0.257,0.113c-1.322,0.583-2.051,1.272-2.051,1.941
		c0,0.651,0.693,1.325,1.95,1.897l0.253,0.115l-0.186,0.206c-0.927,1.025-1.295,1.918-1.036,2.515
		c0.243,0.562,1.03,0.893,2.276,0.956l0.268,0.014l-0.086,0.254c-0.4,1.181-0.382,2.034,0.051,2.468
		c0.418,0.418,1.248,0.446,2.365,0.085l0.251-0.081l0.014,0.264c0.061,1.183,0.38,1.937,0.922,2.18
		c0.615,0.275,1.538-0.111,2.609-1.078l0.208-0.188l0.113,0.257c0.583,1.322,1.272,2.05,1.941,2.05c0.651,0,1.325-0.693,1.897-1.95
		l0.115-0.253l0.206,0.186c1.024,0.926,1.912,1.297,2.516,1.036c0.562-0.243,0.893-1.03,0.955-2.276l0.014-0.268l0.254,0.086
		c0.561,0.19,1.053,0.286,1.462,0.286h0c0.443,0,0.781-0.114,1.005-0.337c0.42-0.42,0.45-1.238,0.085-2.365l-0.081-0.251
		l0.264-0.014c1.183-0.061,1.937-0.38,2.18-0.922c0.273-0.61-0.11-1.536-1.078-2.609l-0.188-0.208l0.257-0.113
		c1.322-0.583,2.051-1.272,2.051-1.941C-10.177-24.346-10.869-25.02-12.127-25.592z M-13.832-24.73l-9.194,9.194
		c-0.333,0.333-0.874,0.333-1.207,0l-6.11-6.11c-0.333-0.333-0.333-0.874,0-1.207l9.194-9.194c0.333-0.333,0.874-0.333,1.207,0
		l6.11,6.11C-13.498-25.603-13.498-25.063-13.832-24.73z"/>
</g>
<g>
	<g>
		<path fill="#FFFFFF" d="M31.884-15h-4.787H7.903H3.116C2.776-15,2.5-14.868,2.5-14.528l1.232,1.214
			c0,0.34,0.276,0.314,0.616,0.314h4.597h17.109h4.597c0.34,0,0.616-0.045,0.616-0.385l1.232-1.258C32.5-14.983,32.224-15,31.884-15
			z"/>
		<path fill="#FFFFFF" d="M18-28.8v-0.533c1-0.215,0.858-0.702,0.858-1.269c0-0.766-0.606-1.388-1.373-1.388
			c-0.766,0-1.35,0.621-1.35,1.388c0,0.567,0.865,1.054,0.865,1.269v0.533C10-28.521,4.782-24,4.248-17h26.504
			C30.218-24,25-28.521,18-28.8z M17.5-29.832c-0.425,0-0.77-0.345-0.77-0.77c0-0.425,0.345-0.77,0.77-0.77s0.77,0.345,0.77,0.77
			C18.27-30.177,17.925-29.832,17.5-29.832z M25.799-23.271c-1.875-2.179-4.6-3.606-7.656-3.76c0.042-0.124,0.089-0.246,0.142-0.365
			c3.068,0.188,5.805,1.617,7.716,3.79C25.939-23.491,25.871-23.379,25.799-23.271z"/>
	</g>
</g>
<g>
	<g>
		<path fill="#FFFFFF" d="M65.976-26.06c-3.051,0-5.524,2.473-5.524,5.524s2.473,5.524,5.524,5.524c3.051,0,5.524-2.473,5.524-5.524
			S69.027-26.06,65.976-26.06z M65.976-16.153c-2.421,0-4.383-1.962-4.383-4.383s1.962-4.383,4.383-4.383
			c2.421,0,4.383,1.962,4.383,4.383S68.397-16.153,65.976-16.153z"/>
		<path fill="#FFFFFF" d="M47.024-26.222c-3.051,0-5.524,2.473-5.524,5.524s2.473,5.524,5.524,5.524s5.524-2.473,5.524-5.524
			S50.074-26.222,47.024-26.222z M47.024-16.316c-2.421,0-4.383-1.962-4.383-4.383s1.962-4.383,4.383-4.383s4.383,1.962,4.383,4.383
			S49.444-16.316,47.024-16.316z"/>
	</g>
	<g>
		<path fill="#FFFFFF" d="M65.976-26.06c-3.051,0-5.524,2.473-5.524,5.524s2.473,5.524,5.524,5.524c3.051,0,5.524-2.473,5.524-5.524
			S69.027-26.06,65.976-26.06z M65.976-16.153c-2.421,0-4.383-1.962-4.383-4.383s1.962-4.383,4.383-4.383
			c2.421,0,4.383,1.962,4.383,4.383S68.397-16.153,65.976-16.153z"/>
		<path fill="#FFFFFF" d="M47.024-26.222c-3.051,0-5.524,2.473-5.524,5.524s2.473,5.524,5.524,5.524s5.524-2.473,5.524-5.524
			S50.074-26.222,47.024-26.222z M47.024-16.316c-2.421,0-4.383-1.962-4.383-4.383s1.962-4.383,4.383-4.383s4.383,1.962,4.383,4.383
			S49.444-16.316,47.024-16.316z"/>
		<path fill="#FFFFFF" d="M65.976-24.1c-0.304,0-0.598,0.038-0.88,0.11c-0.084,0.209-0.132,0.437-0.132,0.677
			c0,0.046,0.004,0.091,0.007,0.137c0.313-0.119,0.65-0.187,1.005-0.187c0.925,0,1.743,0.446,2.259,1.132
			c0.163-0.219,0.278-0.474,0.329-0.753C67.915-23.672,66.996-24.1,65.976-24.1z"/>
		<path fill="#FFFFFF" d="M47.129-24.1c0.304,0,0.598,0.038,0.88,0.11c0.084,0.209,0.132,0.437,0.132,0.677
			c0,0.046-0.004,0.091-0.007,0.137c-0.313-0.119-0.65-0.187-1.005-0.187c-0.925,0-1.743,0.446-2.259,1.132
			c-0.163-0.219-0.278-0.474-0.329-0.753C45.191-23.672,46.109-24.1,47.129-24.1z"/>
	</g>
	<g>
		<g>
			<circle fill="#FFFFFF" cx="56.446" cy="-25.785" r="0.6"/>
			<path fill="#FFFFFF" d="M56.5-30.249c-0.69,0-1.249,1.249-1.249,1.249h2.498C57.749-29,57.19-30.249,56.5-30.249z"/>
			<path fill="#FFFFFF" d="M58.909-22.166c0,0,0.434-0.018,0.923-0.506c0.489-0.489,0.473-0.993,0.473-0.993L59-25.067v-2.619
				C59-27.955,58.691-28,58.421-28h-3.855C54.296-28,54-27.955,54-27.686v2.51l-1.313,1.351c0,0-0.014,0.428,0.42,0.862
				c0.434,0.434,0.96,0.687,0.96,0.687L55-23h2.878L58.909-22.166z M54.708-25.758c0-0.975,0.79-1.765,1.765-1.765
				c0.975,0,1.765,0.79,1.765,1.765c0,0.975-0.79,1.765-1.765,1.765C55.498-23.993,54.708-24.783,54.708-25.758z"/>
		</g>
	</g>
	<g>
		<path fill="#FFFFFF" d="M54.147-22.543l-0.179,0.179c0,0-0.516-0.054-0.95-0.489c-0.434-0.434-0.401-0.862-0.401-0.862
			l0.427-0.427l-0.559-0.811c-0.089-0.13-0.267-0.162-0.396-0.073l-0.814,0.561c0.891,0.981,1.434,2.283,1.434,3.713
			c0,0.33-0.029,0.653-0.085,0.968l2.085-1.437c0.13-0.089,0.162-0.267,0.073-0.396L54.147-22.543z"/>
	</g>
	<g>
		<path fill="#FFFFFF" d="M58.856-22.434l0.179,0.179c0,0,0.516-0.054,0.95-0.489c0.434-0.434,0.401-0.862,0.401-0.862l-0.427-0.427
			l0.559-0.811c0.089-0.13,0.267-0.162,0.396-0.073l0.814,0.561c-0.891,0.981-1.434,2.283-1.434,3.713
			c0,0.33,0.029,0.653,0.085,0.968l-2.085-1.437c-0.13-0.089-0.162-0.267-0.073-0.396L58.856-22.434z"/>
	</g>
</g>
<g>
	<path fill="#FFFFFF" stroke="#FFFFFF" stroke-linecap="round" stroke-linejoin="round" stroke-miterlimit="10" d="M-14.229,32.266
		c-0.08,0-0.159-0.019-0.232-0.058l-9.038-4.752l-9.038,4.752c-0.167,0.091-0.372,0.075-0.527-0.038
		c-0.154-0.111-0.231-0.301-0.199-0.489l1.726-10.063l-7.312-7.128c-0.136-0.133-0.185-0.332-0.126-0.513
		c0.059-0.182,0.215-0.313,0.404-0.341l10.104-1.468l4.519-9.156c0.168-0.34,0.729-0.34,0.896,0l4.52,9.156l10.104,1.468
		c0.188,0.027,0.345,0.159,0.403,0.341c0.059,0.181,0.01,0.38-0.127,0.513l-7.312,7.128l1.727,10.063
		c0.032,0.188-0.045,0.378-0.199,0.489C-14.022,32.233-14.126,32.266-14.229,32.266z M-23.5,26.392c0.08,0,0.16,0.02,0.233,0.058
		l8.374,4.402l-1.6-9.323c-0.027-0.163,0.026-0.328,0.145-0.443l6.774-6.604l-9.362-1.36c-0.162-0.024-0.304-0.126-0.376-0.273
		L-23.5,4.364l-4.187,8.483c-0.073,0.147-0.213,0.249-0.376,0.273l-9.362,1.36l6.775,6.604c0.118,0.115,0.171,0.28,0.144,0.443
		l-1.599,9.323l8.374-4.402C-23.66,26.411-23.58,26.392-23.5,26.392z"/>
</g>
<path fill="#FFFFFF" d="M34,6.729C34,8.535,32.483,10,30.407,10H4.593C2.517,10,1,8.535,1,6.729V6.271C1,4.465,2.517,3,4.593,3
	h25.813C32.483,3,34,4.465,34,6.271V6.729z"/>
<path fill="#FFFFFF" d="M34,17.729C34,19.535,32.483,21,30.407,21H4.593C2.517,21,1,19.535,1,17.729v-0.458
	C1,15.465,2.517,14,4.593,14h25.813C32.483,14,34,15.465,34,17.271V17.729z"/>
<path fill="#FFFFFF" d="M34,28.729C34,30.535,32.483,32,30.407,32H4.593C2.517,32,1,30.535,1,28.729v-0.458
	C1,26.465,2.517,25,4.593,25h25.813C32.483,25,34,26.465,34,28.271V28.729z"/>
<g>
	<circle fill="#FFFFFF" cx="56.921" cy="9.933" r="5.955"/>
	<path fill="#FFFFFF" d="M41.5,32h30c-0.096-8-6.77-14.832-15-14.832S41.596,24,41.5,32z"/>
</g>
<g>
	<path fill="#FFFFFF" d="M-8.484,46.673c-3.461,0-4.173,2.327-4.309,2.327h-24.723c-0.146,0-0.283,0.218-0.375,0.331
		c-0.092,0.112-0.129,0.337-0.099,0.48l2.177,10.724C-35.767,60.76-35.568,61-35.339,61h19.606l-0.395,1.632
		C-17.898,62.81-19.309,64-19.558,66h-7.852c-0.268-2-1.868-3.448-3.816-3.448c-2.134,0-3.871,1.676-3.871,3.81
		c0,2.135,1.737,3.978,3.871,3.978c1.989,0,3.614-1.341,3.828-3.341h7.828c0.214,2,1.838,3.31,3.828,3.31
		c2.135,0,3.871-1.805,3.871-3.94c0-1.927-1.419-3.551-3.265-3.844l3.148-12.415c0.07-0.084,0.117-0.196,0.117-0.314
		c0-0.03-0.012-0.061-0.017-0.09l0.016-0.067c0.006-0.075,0.182-1.847,3.388-1.847c0.267,0,0.484-0.294,0.484-0.561
		S-8.216,46.673-8.484,46.673z M-34.944,60l-1.979-10h23.9l-2.463,10H-34.944z M-31.226,69.206c-1.601,0-2.903-1.302-2.903-2.903
		c0-1.601,1.302-2.903,2.903-2.903c1.601,0,2.903,1.302,2.903,2.903C-28.323,67.903-29.625,69.206-31.226,69.206z M-12.839,66.302
		c0,1.601-1.302,2.903-2.903,2.903s-2.903-1.302-2.903-2.903c0-1.601,1.302-2.903,2.903-2.903S-12.839,64.701-12.839,66.302z"/>
	<path fill="#FFFFFF" d="M-31.71,53h14.516c0.267,0,0.484-0.233,0.484-0.5s-0.216-0.5-0.484-0.5H-31.71
		c-0.267,0-0.484,0.233-0.484,0.5S-31.977,53-31.71,53z"/>
	<path fill="#FFFFFF" d="M-17.194,56H-31.71c-0.267,0-0.484,0.233-0.484,0.5s0.216,0.5,0.484,0.5h14.516
		c0.267,0,0.484-0.233,0.484-0.5S-16.926,56-17.194,56z"/>
</g>
</svg>
