<?xml version="1.0" encoding="utf-8"?>
<!-- Generator: Adobe Illustrator 17.0.0, SVG Export Plug-In . SVG Version: 6.00 Build 0)  -->
<!DOCTYPE svg PUBLIC "-//W3C//DTD SVG 1.1//EN" "http://www.w3.org/Graphics/SVG/1.1/DTD/svg11.dtd">
<svg version="1.1" id="Layer_1" xmlns="http://www.w3.org/2000/svg" xmlns:xlink="http://www.w3.org/1999/xlink" x="0px" y="0px"
	 width="35px" height="35px" viewBox="0 0 35 35" enable-background="new 0 0 35 35" xml:space="preserve">
<g>
	<path fill="#FFFFFF" d="M34,5c0,1.722-1.567,3-3.5,3h-26C2.567,8,1,6.722,1,5l0,0c0-1.722,1.567-3,3.5-3h26C32.433,2,34,3.278,34,5
		L34,5z"/>
	<path fill="#FFFFFF" d="M34,27.5c0,1.722-1.567,3.5-3.5,3.5h-26C2.567,31,1,29.222,1,27.5l0,0C1,25.778,2.567,24,4.5,24h26
		C32.433,24,34,25.778,34,27.5L34,27.5z"/>
	<path fill="#FFFFFF" d="M34,15.904C34,17.51,32.538,19,30.734,19H4.266C2.462,19,1,17.51,1,15.904v-0.417
		C1,13.88,2.462,13,4.266,13h26.469C32.538,13,34,13.88,34,15.487V15.904z"/>
</g>
<path fill="#FFFFFF" d="M88.743,31.893l-5.084-5.084c2.318-2.737,3.723-6.269,3.723-10.128c0-8.658-7.044-15.701-15.701-15.701
	S55.98,8.023,55.98,16.681s7.044,15.701,15.701,15.701c3.859,0,7.391-1.405,10.128-3.723l5.084,5.084
	c0.256,0.256,0.59,0.383,0.925,0.383s0.67-0.128,0.925-0.383C89.254,33.232,89.254,32.403,88.743,31.893z M58.597,16.681
	c0-7.215,5.869-13.084,13.084-13.084c7.215,0,13.084,5.87,13.084,13.084c0,3.574-1.443,6.815-3.774,9.179
	c-0.024,0.021-0.055,0.029-0.079,0.052s-0.031,0.054-0.052,0.079c-2.364,2.331-5.605,3.774-9.179,3.774
	C64.466,29.765,58.597,23.895,58.597,16.681z"/>
<g>
	<g>
		<path fill="#333333" d="M257.884,131.791c-2.611,0-4.735-2.124-4.735-4.735c0-2.611,2.124-4.735,4.735-4.735
			c2.611,0,4.735,2.124,4.735,4.735C262.619,129.667,260.495,131.791,257.884,131.791z M257.884,123.455
			c-1.986,0-3.601,1.615-3.601,3.601c0,1.986,1.615,3.601,3.601,3.601c1.986,0,3.601-1.615,3.601-3.601
			C261.485,125.07,259.87,123.455,257.884,123.455z"/>
	</g>
	<g>
		<path fill="#333333" d="M276.372,131.791c-2.611,0-4.735-2.124-4.735-4.735c0-2.611,2.124-4.735,4.735-4.735
			s4.735,2.124,4.735,4.735C281.107,129.667,278.983,131.791,276.372,131.791z M276.372,123.455c-1.986,0-3.601,1.615-3.601,3.601
			c0,1.986,1.615,3.601,3.601,3.601c1.986,0,3.601-1.615,3.601-3.601C279.973,125.07,278.358,123.455,276.372,123.455z"/>
	</g>
	<g>
		<path fill="#333333" d="M272.204,128h-10.208c-0.313,0-0.567-0.187-0.567-0.5s0.254-0.5,0.567-0.5h10.208
			c0.313,0,0.567,0.187,0.567,0.5S272.518,128,272.204,128z"/>
	</g>
	<g>
		<path fill="#333333" d="M276.837,123.51c-0.053,0-0.107-0.008-0.161-0.023c-0.3-0.089-0.472-0.404-0.383-0.705l7.053-23.85
			c0.04-0.211,0.234-0.656,0.933-1.484c0.711-0.842,2.104-1.449,4.701-1.449h4.549c0.313,0,0.567,0.187,0.567,0.5
			s-0.254,0.5-0.567,0.5h-4.549c-4.067,0-4.515,2.445-4.519,2.473c-0.004,0.027-0.01-0.111-0.017-0.085l-7.063,23.798
			C277.307,123.433,277.081,123.51,276.837,123.51z"/>
	</g>
	<g>
		<path fill="#333333" d="M278.216,120h-22.685c-0.269,0-0.501-0.959-0.555-1.223l-3.516-17.399
			c-0.035-0.167,0.008-0.189,0.116-0.321c0.108-0.132,0.269-0.057,0.44-0.057h31.305c0.313,0,0.567,0.187,0.567,0.5
			s-0.254,0.5-0.567,0.5h-30.609l3.282,16h22.223c0.313,0,0.567,0.687,0.567,1S278.529,120,278.216,120z"/>
	</g>
	<g>
		<path fill="#333333" d="M276.515,108h-18.828c-0.313,0-0.567-0.187-0.567-0.5s0.254-0.5,0.567-0.5h18.828
			c0.313,0,0.567,0.187,0.567,0.5S276.828,108,276.515,108z"/>
	</g>
	<g>
		<path fill="#333333" d="M276.515,113h-18.828c-0.313,0-0.567-0.187-0.567-0.5s0.254-0.5,0.567-0.5h18.828
			c0.313,0,0.567,0.187,0.567,0.5S276.828,113,276.515,113z"/>
	</g>
</g>
<g>
	<g>
		<path fill="#333333" d="M52.884,94.791c-2.611,0-4.735-2.124-4.735-4.735c0-2.611,2.124-4.735,4.735-4.735
			c2.611,0,4.735,2.124,4.735,4.735C57.619,92.667,55.495,94.791,52.884,94.791z M52.884,86.455c-1.986,0-3.601,1.615-3.601,3.601
			c0,1.986,1.615,3.601,3.601,3.601c1.986,0,3.601-1.615,3.601-3.601C56.485,88.07,54.87,86.455,52.884,86.455z"/>
	</g>
	<g>
		<path fill="#333333" d="M71.372,94.791c-2.611,0-4.735-2.124-4.735-4.735c0-2.611,2.124-4.735,4.735-4.735
			c2.611,0,4.735,2.124,4.735,4.735C76.107,92.667,73.983,94.791,71.372,94.791z M71.372,86.455c-1.986,0-3.601,1.615-3.601,3.601
			c0,1.986,1.615,3.601,3.601,3.601c1.986,0,3.601-1.615,3.601-3.601C74.973,88.07,73.358,86.455,71.372,86.455z"/>
	</g>
	<g>
		<path fill="#333333" d="M67.204,91H56.996c-0.313,0-0.567-0.187-0.567-0.5s0.254-0.5,0.567-0.5h10.208
			c0.313,0,0.567,0.187,0.567,0.5S67.518,91,67.204,91z"/>
	</g>
	<g>
		<path fill="#333333" d="M71.837,86.51c-0.053,0-0.107-0.008-0.161-0.023c-0.3-0.089-0.472-0.404-0.383-0.705l7.053-23.85
			c0.04-0.211,0.234-0.656,0.933-1.484C79.99,59.607,81.383,59,83.979,59h4.549c0.313,0,0.567,0.187,0.567,0.5S88.841,60,88.528,60
			h-4.549c-4.067,0-4.515,2.445-4.519,2.473c-0.004,0.027-0.01-0.111-0.017-0.085L72.38,86.186
			C72.307,86.433,72.081,86.51,71.837,86.51z"/>
	</g>
	<g>
		<path fill="#333333" d="M73.216,83H50.531c-0.269,0-0.501-0.959-0.555-1.223L46.46,64.379c-0.035-0.167,0.008-0.189,0.116-0.321
			C46.683,63.925,46.845,64,47.015,64H78.32c0.313,0,0.567,0.187,0.567,0.5S78.633,65,78.32,65H47.711l3.282,16h22.223
			c0.313,0,0.567,0.687,0.567,1S73.529,83,73.216,83z"/>
	</g>
	<g>
		<path fill="#333333" d="M71.515,71H52.686c-0.313,0-0.567-0.187-0.567-0.5s0.254-0.5,0.567-0.5h18.828
			c0.313,0,0.567,0.187,0.567,0.5S71.828,71,71.515,71z"/>
	</g>
	<g>
		<path fill="#333333" d="M71.515,76H52.686c-0.313,0-0.567-0.187-0.567-0.5s0.254-0.5,0.567-0.5h18.828
			c0.313,0,0.567,0.187,0.567,0.5S71.828,76,71.515,76z"/>
	</g>
</g>
<g>
	<path fill="#FFFFFF" d="M34.261,56c-4.218,0-5.156,2.726-5.197,2.851l-0.66,2.152c-0.005,0-0.009-0.003-0.014-0.003h-27.4
		c-0.143,0-0.279,0.063-0.371,0.175c-0.093,0.11-0.134,0.258-0.112,0.401l2.12,14C2.663,75.82,2.868,76,3.109,76h20.694
		l-1.085,3.538c-2.34,0.187-4.199,2.075-4.399,4.462h-7.095c-0.211-2.513-2.257-4.5-4.77-4.5c-2.653,0-4.812,2.206-4.812,4.917
		s2.158,4.916,4.812,4.916c2.457,0,4.467-1.899,4.753-4.333h7.128c0.286,2.434,2.296,4.333,4.754,4.333
		c2.653,0,4.811-2.205,4.811-4.916c0-2.485-1.82-4.524-4.166-4.85l1.185-3.861c0.006-0.014,0.009-0.03,0.014-0.044l5.062-16.503
		C30.002,59.137,30.74,57,34.261,57c0.27,0,0.489-0.224,0.489-0.5S34.531,56,34.261,56z M3.529,75L1.56,62h26.538L24.11,75H3.529z
		 M6.453,88.333c-2.113,0-3.833-1.757-3.833-3.916c0-2.16,1.72-3.917,3.833-3.917s3.833,1.757,3.833,3.917
		C10.286,86.576,8.567,88.333,6.453,88.333z M26.921,84.417c0,2.159-1.719,3.916-3.833,3.916s-3.833-1.757-3.833-3.916
		c0-2.16,1.72-3.917,3.833-3.917S26.921,82.257,26.921,84.417z"/>
	<path fill="#FFFFFF" d="M6.861,66h14.679c0.27,0,0.489-0.224,0.489-0.5S21.81,65,21.539,65H6.861c-0.27,0-0.489,0.224-0.489,0.5
		S6.59,66,6.861,66z"/>
	<path fill="#FFFFFF" d="M21.539,71H6.861c-0.27,0-0.489,0.224-0.489,0.5S6.59,72,6.861,72h14.679c0.27,0,0.489-0.224,0.489-0.5
		S21.81,71,21.539,71z"/>
</g>
</svg>
