<?xml version="1.0" encoding="utf-8"?>
<!-- Generator: Adobe Illustrator 17.0.0, SVG Export Plug-In . SVG Version: 6.00 Build 0)  -->
<!DOCTYPE svg PUBLIC "-//W3C//DTD SVG 1.1//EN" "http://www.w3.org/Graphics/SVG/1.1/DTD/svg11.dtd">
<svg version="1.1" id="Layer_1" xmlns="http://www.w3.org/2000/svg" xmlns:xlink="http://www.w3.org/1999/xlink" x="0px" y="0px"
	 width="35px" height="35px" viewBox="0 0 35 35" enable-background="new 0 0 35 35" xml:space="preserve">
<g>
	<path fill="#FFFFFF" d="M15.587,16.771c-0.347,0.347-0.339,0.929,0.185,1.453c0.533,0.524,1.078,0.504,1.405,0.177
		c0.339-0.339,0.355-0.904-0.198-1.457C16.479,16.444,15.954,16.404,15.587,16.771z M16.971,18.179
		c-0.222,0.222-0.601,0.093-0.928-0.25c-0.331-0.331-0.476-0.71-0.254-0.932c0.246-0.246,0.605-0.072,0.924,0.246
		C17.06,17.59,17.205,17.945,16.971,18.179z"/>
	<polygon fill="#FFFFFF" points="17.103,15.293 18.216,19.489 18.442,19.263 17.329,15.067 	"/>
	
		<rect x="20.216" y="9.576" transform="matrix(0.7071 0.7071 -0.7071 0.7071 14.6525 -10.8466)" fill="#FFFFFF" width="0.406" height="5.376"/>
	
		<rect x="18.951" y="13.28" transform="matrix(-0.7071 0.7071 -0.7071 -0.7071 46.4738 7.7165)" fill="#FFFFFF" width="5.376" height="0.406"/>
	<circle fill="#FFFFFF" cx="14.507" cy="20.525" r="0.76"/>
	<path fill="#FFFFFF" d="M18.384,16.145c-0.347,0.347-0.339,0.928,0.19,1.457c0.529,0.521,1.074,0.5,1.4,0.174
		c0.335-0.335,0.351-0.9-0.202-1.453C19.271,15.822,18.751,15.778,18.384,16.145z M19.768,17.554
		c-0.218,0.218-0.601,0.093-0.932-0.246c-0.331-0.331-0.472-0.714-0.25-0.936c0.246-0.246,0.605-0.073,0.924,0.246
		C19.857,16.965,20.002,17.32,19.768,17.554z"/>
	<path fill="#FFFFFF" d="M18.564,2.912c-7.62,0-13.797,6.014-13.797,13.433c0,2.711,0.831,5.229,2.25,7.34l-4.656,7.199l7.324-4.264
		c2.4,1.968,5.495,3.159,8.879,3.159c7.62,0,13.797-6.014,13.797-13.433C32.361,8.927,26.184,2.912,18.564,2.912z M30.152,21.342
		c-0.289,0.645-1.072,1.038-2.271,1.144c0.329,1.158,0.24,2.014-0.26,2.514c-0.303,0.303-0.737,0.44-1.292,0.44h0
		c-0.39,0-0.841-0.061-1.342-0.212c-0.107,1.261-0.513,2.084-1.182,2.374c-0.178,0.077-0.372,0.12-0.578,0.12
		c-0.624,0-1.352-0.349-2.167-1.042c-0.627,1.272-1.367,1.944-2.15,1.944c-0.803,0-1.56-0.705-2.198-2.042
		c-0.849,0.722-1.603,1.088-2.244,1.088c-0.213,0-0.414-0.041-0.596-0.123c-0.645-0.289-1.038-1.072-1.144-2.271
		c-1.163,0.331-2.029,0.241-2.53-0.26c-0.515-0.515-0.593-1.423-0.228-2.635c-1.261-0.107-2.076-0.513-2.366-1.182
		c-0.311-0.718,0.01-1.664,0.928-2.744c-1.272-0.627-1.942-1.367-1.942-2.15c0-0.803,0.705-1.56,2.042-2.198
		C7.674,12.978,7.34,12,7.668,11.268c0.289-0.645,1.072-1.038,2.271-1.144c-0.329-1.158-0.24-2.03,0.26-2.53
		C10.715,7.079,11.618,7,12.834,7.366C12.941,6.105,13.347,5.29,14.016,5c0.178-0.077,0.372-0.116,0.578-0.116
		c0.624,0,1.352,0.351,2.167,1.044c0.627-1.272,1.367-1.942,2.15-1.942c0.803,0,1.56,0.705,2.198,2.042
		c0.849-0.722,1.603-1.088,2.244-1.088c0.213,0,0.413,0.041,0.596,0.123c0.645,0.289,1.038,1.072,1.144,2.271
		c1.163-0.331,2.029-0.241,2.53,0.26c0.515,0.515,0.593,1.423,0.228,2.635c1.261,0.107,2.076,0.513,2.366,1.182
		c0.311,0.718-0.01,1.664-0.928,2.745c1.272,0.627,1.942,1.367,1.942,2.15c0,0.803-0.705,1.56-2.042,2.198
		C30.146,19.632,30.48,20.61,30.152,21.342z"/>
	
		<rect x="22.584" y="11.943" transform="matrix(-0.7071 -0.7071 0.7071 -0.7071 28.5532 41.0891)" fill="#FFFFFF" width="0.406" height="5.376"/>
	<path fill="#FFFFFF" d="M28.873,14.408l-0.253-0.115l0.186-0.206c0.927-1.025,1.295-1.918,1.036-2.516
		c-0.243-0.562-1.03-0.893-2.276-0.955l-0.268-0.014l0.086-0.254c0.4-1.181,0.382-2.034-0.051-2.468
		c-0.418-0.418-1.248-0.446-2.365-0.085l-0.251,0.081l-0.014-0.264c-0.061-1.183-0.38-1.937-0.922-2.18
		c-0.614-0.276-1.538,0.111-2.609,1.078l-0.208,0.188l-0.113-0.257c-0.583-1.322-1.272-2.051-1.941-2.051
		c-0.651,0-1.325,0.693-1.897,1.95l-0.115,0.253l-0.206-0.186c-1.024-0.926-1.913-1.297-2.516-1.036
		c-0.562,0.243-0.893,1.03-0.955,2.276l-0.014,0.268L12.954,7.83c-1.169-0.396-2.037-0.38-2.468,0.051
		c-0.42,0.42-0.45,1.238-0.085,2.365l0.081,0.251l-0.264,0.014c-1.183,0.061-1.937,0.38-2.18,0.922
		c-0.273,0.61,0.11,1.536,1.078,2.609l0.188,0.208l-0.257,0.113c-1.322,0.583-2.051,1.272-2.051,1.941
		c0,0.651,0.693,1.325,1.95,1.897L9.2,18.317l-0.186,0.206c-0.927,1.025-1.295,1.918-1.036,2.515
		c0.243,0.562,1.03,0.893,2.276,0.956l0.268,0.014l-0.086,0.254c-0.4,1.181-0.382,2.034,0.051,2.468
		c0.418,0.418,1.248,0.446,2.365,0.085l0.251-0.081l0.014,0.264c0.061,1.183,0.38,1.937,0.922,2.18
		c0.615,0.275,1.538-0.111,2.609-1.078l0.208-0.188l0.113,0.257c0.583,1.322,1.272,2.05,1.941,2.05c0.651,0,1.325-0.693,1.897-1.95
		l0.115-0.253l0.206,0.186c1.024,0.926,1.912,1.297,2.516,1.036c0.562-0.243,0.893-1.03,0.955-2.276l0.014-0.268l0.254,0.086
		c0.561,0.19,1.053,0.286,1.462,0.286h0c0.443,0,0.781-0.114,1.005-0.337c0.42-0.42,0.45-1.238,0.085-2.365l-0.081-0.251
		l0.264-0.014c1.183-0.061,1.937-0.38,2.18-0.922c0.273-0.61-0.11-1.536-1.078-2.609l-0.188-0.208l0.257-0.113
		c1.322-0.583,2.051-1.272,2.051-1.941C30.823,15.654,30.131,14.98,28.873,14.408z M27.168,15.27l-9.194,9.194
		c-0.333,0.333-0.874,0.333-1.207,0l-6.11-6.11c-0.333-0.333-0.333-0.874,0-1.207l9.194-9.194c0.333-0.333,0.874-0.333,1.207,0
		l6.11,6.11C27.502,14.397,27.502,14.937,27.168,15.27z"/>
</g>
<g>
	<g>
		<path fill="#FFFFFF" d="M72.884,25h-4.787H48.903h-4.787c-0.34,0-0.616,0.132-0.616,0.472l1.232,1.214
			c0,0.34,0.276,0.314,0.616,0.314h4.597h17.109h4.597c0.34,0,0.616-0.045,0.616-0.385l1.232-1.258C73.5,25.017,73.224,25,72.884,25
			z"/>
		<path fill="#FFFFFF" d="M59,11.2v-0.533c1-0.215,0.858-0.702,0.858-1.269c0-0.766-0.606-1.388-1.373-1.388s-1.35,0.621-1.35,1.388
			c0,0.567,0.865,1.054,0.865,1.269V11.2C51,11.479,45.782,16,45.248,23h26.504C71.218,16,66,11.479,59,11.2z M58.5,10.168
			c-0.425,0-0.77-0.345-0.77-0.77c0-0.425,0.345-0.77,0.77-0.77s0.77,0.345,0.77,0.77C59.27,9.823,58.925,10.168,58.5,10.168z
			 M66.799,16.729c-1.875-2.179-4.6-3.606-7.656-3.76c0.042-0.124,0.089-0.246,0.142-0.365c3.068,0.188,5.805,1.617,7.716,3.79
			C66.939,16.509,66.871,16.621,66.799,16.729z"/>
	</g>
</g>
<g>
	<g>
		<path fill="#FFFFFF" d="M106.976,13.94c-3.051,0-5.524,2.473-5.524,5.524s2.473,5.524,5.524,5.524
			c3.051,0,5.524-2.473,5.524-5.524S110.027,13.94,106.976,13.94z M106.976,23.847c-2.421,0-4.383-1.962-4.383-4.383
			s1.962-4.383,4.383-4.383c2.421,0,4.383,1.962,4.383,4.383S109.397,23.847,106.976,23.847z"/>
		<path fill="#FFFFFF" d="M88.024,13.778c-3.051,0-5.524,2.473-5.524,5.524s2.473,5.524,5.524,5.524
			c3.051,0,5.524-2.473,5.524-5.524S91.074,13.778,88.024,13.778z M88.024,23.684c-2.421,0-4.383-1.962-4.383-4.383
			s1.962-4.383,4.383-4.383c2.421,0,4.383,1.962,4.383,4.383S90.444,23.684,88.024,23.684z"/>
	</g>
	<g>
		<path fill="#FFFFFF" d="M106.976,13.94c-3.051,0-5.524,2.473-5.524,5.524s2.473,5.524,5.524,5.524
			c3.051,0,5.524-2.473,5.524-5.524S110.027,13.94,106.976,13.94z M106.976,23.847c-2.421,0-4.383-1.962-4.383-4.383
			s1.962-4.383,4.383-4.383c2.421,0,4.383,1.962,4.383,4.383S109.397,23.847,106.976,23.847z"/>
		<path fill="#FFFFFF" d="M88.024,13.778c-3.051,0-5.524,2.473-5.524,5.524s2.473,5.524,5.524,5.524
			c3.051,0,5.524-2.473,5.524-5.524S91.074,13.778,88.024,13.778z M88.024,23.684c-2.421,0-4.383-1.962-4.383-4.383
			s1.962-4.383,4.383-4.383c2.421,0,4.383,1.962,4.383,4.383S90.444,23.684,88.024,23.684z"/>
		<path fill="#FFFFFF" d="M106.976,15.9c-0.304,0-0.598,0.038-0.88,0.11c-0.084,0.209-0.132,0.437-0.132,0.677
			c0,0.046,0.004,0.091,0.007,0.137c0.313-0.119,0.65-0.187,1.005-0.187c0.925,0,1.743,0.446,2.259,1.132
			c0.163-0.219,0.278-0.474,0.329-0.753C108.915,16.328,107.996,15.9,106.976,15.9z"/>
		<path fill="#FFFFFF" d="M88.129,15.9c0.304,0,0.598,0.038,0.88,0.11c0.084,0.209,0.132,0.437,0.132,0.677
			c0,0.046-0.004,0.091-0.007,0.137c-0.313-0.119-0.65-0.187-1.005-0.187c-0.925,0-1.743,0.446-2.259,1.132
			c-0.163-0.219-0.278-0.474-0.329-0.753C86.191,16.328,87.109,15.9,88.129,15.9z"/>
	</g>
	<g>
		<g>
			<circle fill="#FFFFFF" cx="97.446" cy="14.215" r="0.6"/>
			<path fill="#FFFFFF" d="M97.5,9.751c-0.69,0-1.249,1.249-1.249,1.249h2.498C98.749,11,98.19,9.751,97.5,9.751z"/>
			<path fill="#FFFFFF" d="M99.909,17.834c0,0,0.434-0.018,0.923-0.506c0.489-0.489,0.473-0.993,0.473-0.993L100,14.933v-2.619
				c0-0.27-0.309-0.314-0.579-0.314h-3.855C95.296,12,95,12.045,95,12.314v2.51l-1.313,1.351c0,0-0.014,0.428,0.42,0.862
				c0.434,0.434,0.96,0.687,0.96,0.687L96,17h2.878L99.909,17.834z M95.708,14.242c0-0.975,0.79-1.765,1.765-1.765
				c0.975,0,1.765,0.79,1.765,1.765c0,0.975-0.79,1.765-1.765,1.765C96.498,16.007,95.708,15.217,95.708,14.242z"/>
		</g>
	</g>
	<g>
		<path fill="#FFFFFF" d="M95.147,17.457l-0.179,0.179c0,0-0.516-0.054-0.95-0.489c-0.434-0.434-0.401-0.862-0.401-0.862
			l0.427-0.427l-0.559-0.811c-0.089-0.13-0.267-0.162-0.396-0.073l-0.814,0.561c0.891,0.981,1.434,2.283,1.434,3.713
			c0,0.33-0.029,0.653-0.085,0.968l2.085-1.437c0.13-0.089,0.162-0.267,0.073-0.396L95.147,17.457z"/>
	</g>
	<g>
		<path fill="#FFFFFF" d="M99.856,17.566l0.179,0.179c0,0,0.516-0.054,0.95-0.489c0.434-0.434,0.401-0.862,0.401-0.862l-0.427-0.427
			l0.559-0.811c0.089-0.13,0.267-0.162,0.396-0.073l0.814,0.561c-0.891,0.981-1.434,2.283-1.434,3.713
			c0,0.33,0.029,0.653,0.085,0.968l-2.085-1.437c-0.13-0.089-0.162-0.267-0.073-0.396L99.856,17.566z"/>
	</g>
</g>
<g>
	<path fill="#FFFFFF" stroke="#FFFFFF" stroke-linecap="round" stroke-linejoin="round" stroke-miterlimit="10" d="M26.771,72.266
		c-0.08,0-0.159-0.019-0.232-0.058L17.5,67.456l-9.038,4.752c-0.167,0.091-0.372,0.075-0.527-0.038
		c-0.154-0.111-0.231-0.301-0.199-0.489l1.726-10.063L2.151,54.49c-0.136-0.133-0.185-0.332-0.126-0.513
		c0.059-0.182,0.215-0.313,0.404-0.341l10.104-1.468l4.519-9.156c0.168-0.34,0.729-0.34,0.896,0l4.52,9.156l10.104,1.468
		c0.188,0.027,0.345,0.159,0.403,0.341c0.059,0.181,0.01,0.38-0.127,0.513l-7.312,7.128l1.727,10.063
		c0.032,0.188-0.045,0.378-0.199,0.489C26.978,72.233,26.874,72.266,26.771,72.266z M17.5,66.392c0.08,0,0.16,0.02,0.233,0.058
		l8.374,4.402l-1.6-9.323c-0.027-0.163,0.026-0.328,0.145-0.443l6.774-6.604l-9.362-1.36c-0.162-0.024-0.304-0.126-0.376-0.273
		L17.5,44.364l-4.187,8.483c-0.073,0.147-0.213,0.249-0.376,0.273l-9.362,1.36l6.775,6.604c0.118,0.115,0.171,0.28,0.144,0.443
		l-1.599,9.323l8.374-4.402C17.34,66.411,17.42,66.392,17.5,66.392z"/>
</g>
<path fill="#FFFFFF" d="M73,46.729C73,48.535,71.535,50,69.729,50H47.271C45.465,50,44,48.535,44,46.729v-0.458
	C44,44.465,45.465,43,47.271,43h22.458C71.535,43,73,44.465,73,46.271V46.729z"/>
<path fill="#FFFFFF" d="M73,57.729C73,59.535,71.535,61,69.729,61H47.271C45.465,61,44,59.535,44,57.729v-0.458
	C44,55.465,45.465,54,47.271,54h22.458C71.535,54,73,55.465,73,57.271V57.729z"/>
<path fill="#FFFFFF" d="M73,68.729C73,70.535,71.535,72,69.729,72H47.271C45.465,72,44,70.535,44,68.729v-0.458
	C44,66.465,45.465,65,47.271,65h22.458C71.535,65,73,66.465,73,68.271V68.729z"/>
<g>
	<circle fill="#FFFFFF" cx="97.921" cy="49.933" r="5.955"/>
	<path fill="#FFFFFF" d="M82.5,72h30c-0.096-8-6.77-14.832-15-14.832S82.596,64,82.5,72z"/>
</g>
<g>
	<path fill="#FFFFFF" d="M32.516,86.673c-3.461,0-4.173,2.327-4.309,2.327H3.484c-0.146,0-0.283,0.218-0.375,0.331
		c-0.092,0.112-0.129,0.337-0.099,0.48l2.177,10.724C5.233,100.76,5.432,101,5.661,101h19.606l-0.395,1.632
		c-1.77,0.178-3.181,1.368-3.43,3.368H13.59c-0.268-2-1.868-3.448-3.816-3.448c-2.134,0-3.871,1.676-3.871,3.81
		c0,2.135,1.737,3.978,3.871,3.978c1.989,0,3.614-1.341,3.828-3.341h7.828c0.214,2,1.838,3.31,3.828,3.31
		c2.135,0,3.871-1.805,3.871-3.94c0-1.927-1.419-3.551-3.265-3.844l3.148-12.415c0.07-0.084,0.117-0.196,0.117-0.314
		c0-0.03-0.012-0.061-0.017-0.09l0.016-0.067c0.006-0.075,0.182-1.847,3.388-1.847c0.267,0,0.484-0.294,0.484-0.561
		C33,86.967,32.784,86.673,32.516,86.673z M6.056,100L4.077,90h23.9l-2.463,10H6.056z M9.774,109.206
		c-1.601,0-2.903-1.302-2.903-2.903c0-1.601,1.302-2.903,2.903-2.903s2.903,1.302,2.903,2.903
		C12.677,107.903,11.375,109.206,9.774,109.206z M28.161,106.302c0,1.601-1.302,2.903-2.903,2.903s-2.903-1.302-2.903-2.903
		c0-1.601,1.302-2.903,2.903-2.903S28.161,104.701,28.161,106.302z"/>
	<path fill="#FFFFFF" d="M9.29,93h14.516c0.267,0,0.484-0.233,0.484-0.5S24.074,92,23.806,92H9.29c-0.267,0-0.484,0.233-0.484,0.5
		S9.023,93,9.29,93z"/>
	<path fill="#FFFFFF" d="M23.806,96H9.29c-0.267,0-0.484,0.233-0.484,0.5S9.023,97,9.29,97h14.516c0.267,0,0.484-0.233,0.484-0.5
		S24.074,96,23.806,96z"/>
</g>
</svg>
